<svg viewBox="0 0 28 28" fill="none" xmlns="http://www.w3.org/2000/svg">
    <path d="M15.0507 17.5308H12.9076L12.6718 7H15.2968L15.0507 17.5308ZM12.6 20.7505C12.6 20.3608 12.7265 20.0396 12.9794 19.7866C13.2323 19.5269 13.5775 19.397 14.015 19.397C14.4525 19.397 14.7978 19.5269 15.0507 19.7866C15.3036 20.0396 15.4301 20.3608 15.4301 20.7505C15.4301 21.1265 15.307 21.4409 15.0609 21.6938C14.8148 21.9468 14.4662 22.0732 14.015 22.0732C13.5639 22.0732 13.2152 21.9468 12.9691 21.6938C12.723 21.4409 12.6 21.1265 12.6 20.7505Z" fill="currentColor"/>
    <rect x="0.5" y="0.5" width="27" height="27" rx="13.5" stroke="currentColor"/>
</svg>
