<svg viewBox="0 0 20 20" fill="none" xmlns="http://www.w3.org/2000/svg">
    <path d="M7.51561 12.6153L6.97095 12.0997L5.93974 13.189L6.48439 13.7047L7.51561 12.6153ZM10 16L9.48439 16.5447C9.77361 16.8184 10.2264 16.8184 10.5156 16.5447L10 16ZM13.5156 13.7047L14.0603 13.189L13.029 12.0997L12.4844 12.6153L13.5156 13.7047ZM6.48439 13.7047L9.48439 16.5447L10.5156 15.4553L7.51561 12.6153L6.48439 13.7047ZM10.5156 16.5447L13.5156 13.7047L12.4844 12.6153L9.48439 15.4553L10.5156 16.5447ZM9.25 4L9.25 16L10.75 16L10.75 4L9.25 4Z" fill="currentColor"/>
</svg>
