<svg viewBox="0 0 32 32" fill="none" xmlns="http://www.w3.org/2000/svg">
<path d="M25.4 16C25.4 16.3314 25.6686 16.6 26 16.6C26.3314 16.6 26.6 16.3314 26.6 16H25.4ZM16 25.4C10.8085 25.4 6.6 21.1915 6.6 16H5.4C5.4 21.8542 10.1458 26.6 16 26.6V25.4ZM6.6 16C6.6 10.8085 10.8085 6.6 16 6.6V5.4C10.1458 5.4 5.4 10.1458 5.4 16H6.6ZM16 6.6C21.1915 6.6 25.4 10.8085 25.4 16H26.6C26.6 10.1458 21.8542 5.4 16 5.4V6.6Z" fill="currentColor"/>
<path d="M21.4 16C21.4 16.3314 21.6686 16.6 22 16.6C22.3314 16.6 22.6 16.3314 22.6 16H21.4ZM16 21.4C13.0177 21.4 10.6 18.9823 10.6 16H9.4C9.4 19.6451 12.3549 22.6 16 22.6V21.4ZM10.6 16C10.6 13.0177 13.0177 10.6 16 10.6V9.4C12.3549 9.4 9.4 12.3549 9.4 16H10.6ZM16 10.6C18.9823 10.6 21.4 13.0177 21.4 16H22.6C22.6 12.3549 19.6451 9.4 16 9.4V10.6Z" fill="currentColor"/>
<path d="M19.6094 24.7138L16 16L24.9173 19.6915L22.0508 20.8788L25.6538 24.2064L24.5664 25.4404L20.7524 22.0683L19.6094 24.7138Z" fill="currentColor"/>
</svg>
