<svg viewBox="0 0 32 32" fill="none" xmlns="http://www.w3.org/2000/svg">
<path d="M24.9258 14.7068C24.9258 14.599 24.8719 14.5539 24.764 14.5449L22.5627 14.3295C22.5241 14.3301 22.4866 14.3165 22.4569 14.2918C22.4272 14.2671 22.4074 14.2329 22.401 14.1948C22.2776 13.7336 22.0965 13.2896 21.8619 12.8738C21.8303 12.8378 21.8129 12.7915 21.8129 12.7435C21.8129 12.6956 21.8303 12.6493 21.8619 12.6132L23.2366 10.9242C23.3085 10.8433 23.3085 10.7984 23.2366 10.7175C22.7013 9.98458 22.0558 9.3391 21.3228 8.80382C21.311 8.79044 21.2965 8.77958 21.2803 8.77223C21.264 8.76489 21.2463 8.76127 21.2285 8.76127C21.2106 8.76127 21.193 8.76489 21.1767 8.77223C21.1605 8.77958 21.146 8.79044 21.1342 8.80382L19.436 10.1783C19.3999 10.2099 19.3536 10.2275 19.3057 10.2275C19.2577 10.2275 19.2114 10.2099 19.1754 10.1783C18.7638 9.94165 18.3227 9.76029 17.8636 9.63915C17.8216 9.63251 17.7835 9.61053 17.7569 9.57729C17.7303 9.54404 17.7171 9.5022 17.7198 9.45971C17.6569 8.80381 17.5851 8.14795 17.5132 7.49205C17.5132 7.37524 17.5131 7.23138 17.4592 7.1595C17.4053 7.08762 17.2346 7.10552 17.1178 7.08755C16.3043 6.97082 15.4784 6.97082 14.6649 7.08755C14.6441 7.08751 14.6235 7.0916 14.6043 7.09983C14.5852 7.10806 14.5679 7.12022 14.5536 7.13537C14.5393 7.15052 14.5282 7.16843 14.5211 7.18801C14.514 7.2076 14.511 7.22863 14.5122 7.24943C14.4403 7.9862 14.3595 8.71394 14.2876 9.44172C14.2876 9.54056 14.2876 9.58543 14.1528 9.61239C13.6963 9.72876 13.2579 9.90699 12.8499 10.1424C12.8124 10.1746 12.7647 10.1924 12.7152 10.1924C12.6658 10.1924 12.6179 10.1746 12.5804 10.1424L10.8822 8.75863L10.7834 8.68668L10.6936 8.74986C9.96502 9.28672 9.32006 9.92831 8.77978 10.6543C8.7079 10.7532 8.72587 10.7981 8.77978 10.879L10.1724 12.5865C10.1972 12.6169 10.2108 12.6547 10.2108 12.694C10.2108 12.7332 10.1972 12.7714 10.1724 12.8019C9.93198 13.2202 9.74485 13.6669 9.61532 14.1317C9.61532 14.2305 9.55249 14.2666 9.45365 14.2756L7.25226 14.5002C7.16241 14.5002 7.11756 14.5001 7.10858 14.6349C6.96381 15.5275 6.96381 16.4377 7.10858 17.3304C7.10858 17.4472 7.17142 17.4833 7.27924 17.4923L9.45365 17.7077C9.49569 17.7068 9.53664 17.7209 9.56947 17.7472C9.60231 17.7734 9.62491 17.8104 9.63331 17.8516C9.75445 18.3107 9.9357 18.7517 10.1724 19.1633C10.2033 19.1979 10.2204 19.2428 10.2204 19.2893C10.2204 19.3357 10.2033 19.3801 10.1724 19.4147L8.78877 21.113C8.77366 21.1257 8.76146 21.1417 8.75312 21.1595C8.74479 21.1774 8.74051 21.1969 8.74051 21.2166C8.74051 21.2363 8.74479 21.2557 8.75312 21.2736C8.76146 21.2914 8.77366 21.307 8.78877 21.3197C9.3261 22.0426 9.96807 22.6819 10.6936 23.2158C10.7061 23.2325 10.7224 23.2459 10.7411 23.2553C10.7598 23.2646 10.7805 23.2693 10.8014 23.2693C10.8223 23.2693 10.8429 23.2646 10.8616 23.2553C10.8803 23.2459 10.8967 23.2325 10.9092 23.2158L12.6253 21.8229C12.6387 21.809 12.6548 21.7979 12.6725 21.7904C12.6903 21.7829 12.7094 21.779 12.7287 21.779C12.748 21.779 12.767 21.7829 12.7848 21.7904C12.8025 21.7979 12.8186 21.809 12.832 21.8229C13.1642 22.0268 13.5244 22.1814 13.9012 22.2813C14.2516 22.3532 14.3235 22.5418 14.3504 22.8653C14.3504 23.4942 14.4672 24.1233 14.5391 24.7522C14.5391 24.8421 14.5391 24.8689 14.6649 24.8869C15.5571 25.0377 16.4682 25.0377 17.3604 24.8869C17.4682 24.8869 17.4862 24.8328 17.4952 24.743C17.5671 24.0152 17.6479 23.2873 17.7198 22.5595C17.7198 22.4427 17.7199 22.3978 17.8726 22.3708C18.3304 22.2459 18.771 22.0651 19.1844 21.8321C19.2175 21.8018 19.2608 21.7847 19.3057 21.7847C19.3506 21.7847 19.3939 21.8018 19.427 21.8321C19.9841 22.2903 20.5501 22.7304 21.1072 23.2066C21.206 23.2875 21.26 23.2785 21.3588 23.2066C22.0663 22.6743 22.6954 22.0451 23.2276 21.3376C23.2434 21.3225 23.2559 21.3046 23.2645 21.2846C23.2731 21.2645 23.2775 21.2428 23.2775 21.2209C23.2775 21.1991 23.2731 21.1774 23.2645 21.1573C23.2559 21.1373 23.2434 21.1193 23.2276 21.1042L21.8439 19.406C21.8136 19.3728 21.7969 19.3298 21.7969 19.2849C21.7969 19.24 21.8136 19.1965 21.8439 19.1633C22.0339 18.8229 22.1904 18.4649 22.3111 18.0942C22.4369 17.7078 22.4369 17.7168 22.8502 17.6809L24.755 17.483C24.8539 17.483 24.8809 17.4382 24.8988 17.3484C25.0424 16.4743 25.0515 15.5836 24.9258 14.7068ZM16.0396 18.7501C15.3247 18.7501 14.6391 18.4659 14.1336 17.9604C13.6281 17.4549 13.3441 16.7695 13.3441 16.0546C13.3441 15.3397 13.6281 14.6538 14.1336 14.1483C14.6391 13.6428 15.3247 13.3591 16.0396 13.3591C16.7545 13.3591 17.4401 13.6428 17.9456 14.1483C18.4512 14.6538 18.7351 15.3397 18.7351 16.0546C18.7304 16.7663 18.4443 17.4473 17.9393 17.949C17.4343 18.4506 16.7514 18.7321 16.0396 18.7321V18.7501Z" stroke="currentColor" stroke-width="1.2" stroke-miterlimit="10"/>
</svg>
