<svg viewBox="0 0 32 32" fill="none" xmlns="http://www.w3.org/2000/svg">
<path d="M14.2231 14.8981V14.4519C14.3544 14.3994 14.5294 14.3469 14.7481 14.2944C14.9669 14.2331 15.1987 14.1806 15.4437 14.1369C15.6887 14.0931 15.9294 14.0581 16.1656 14.0319C16.4106 13.9969 16.625 13.9794 16.8087 13.9794L17.045 14.1369L15.8638 19.7938H16.7825V20.24C16.6687 20.3188 16.5331 20.3931 16.3756 20.4631C16.2269 20.5331 16.065 20.5944 15.89 20.6469C15.7237 20.6994 15.5531 20.7388 15.3781 20.765C15.2031 20.8 15.0369 20.8175 14.8794 20.8175C14.5469 20.8175 14.315 20.7563 14.1837 20.6338C14.0612 20.5025 14 20.3625 14 20.2138C14 20.0388 14.0131 19.8681 14.0394 19.7019C14.0656 19.5356 14.1006 19.3519 14.1444 19.1506L15.0369 15.0819L14.2231 14.8981ZM15.3256 11.945C15.3256 11.6475 15.4262 11.4156 15.6275 11.2494C15.8287 11.0831 16.0825 11 16.3887 11C16.7212 11 16.9838 11.0831 17.1762 11.2494C17.3775 11.4156 17.4781 11.6475 17.4781 11.945C17.4781 12.225 17.3775 12.4481 17.1762 12.6144C16.9838 12.7806 16.7212 12.8638 16.3887 12.8638C16.0825 12.8638 15.8287 12.7806 15.6275 12.6144C15.4262 12.4481 15.3256 12.225 15.3256 11.945Z" fill="currentColor"/>
<circle cx="16" cy="16" r="8.4" stroke="currentColor" stroke-width="1.2"/>
</svg>
