<svg viewBox="0 0 32 32" fill="none" xmlns="http://www.w3.org/2000/svg">
<path d="M6 10.2783L8.71078 5.50609C8.88847 5.19326 9.22052 5 9.58029 5H20.4168C20.7763 5 21.1082 5.19306 21.286 5.50564L26.7209 15.062C26.8953 15.3686 26.8952 15.7444 26.7207 16.051L21.2861 25.6005C21.1083 25.913 20.7764 26.1059 20.417 26.1059H9.58009C9.22042 26.1059 8.88846 25.9128 8.71073 25.6001L6 20.8312" stroke="currentColor" stroke-width="1.5" stroke-miterlimit="10" stroke-linecap="round"/>
<path d="M13.3082 18.3868L12.695 18.8186L13.5586 20.045L14.1718 19.6132L13.3082 18.3868ZM18 16L18.4318 16.6132C18.6313 16.4727 18.75 16.244 18.75 16C18.75 15.756 18.6313 15.5273 18.4318 15.3868L18 16ZM14.1718 12.3868L13.5586 11.955L12.695 13.1814L13.3082 13.6132L14.1718 12.3868ZM14.1718 19.6132L18.4318 16.6132L17.5682 15.3868L13.3082 18.3868L14.1718 19.6132ZM18.4318 15.3868L14.1718 12.3868L13.3082 13.6132L17.5682 16.6132L18.4318 15.3868ZM-7.15196e-08 16.75L18 16.75L18 15.25L-1.19199e-07 15.25L-7.15196e-08 16.75Z" fill="currentColor"/>
</svg>
