<svg viewBox="0 0 32 32" fill="none" xmlns="http://www.w3.org/2000/svg">
<path d="M11 7.99976H8V23.9998H24V7.99976H20.5" stroke="currentColor" stroke-width="1.5" stroke-linecap="round" stroke-linejoin="round"/>
<path d="M18.9129 10.5875L19.4575 11.1031L20.4887 10.0138L19.9441 9.4982L18.9129 10.5875ZM16.2142 7L16.7298 6.45534C16.4406 6.18155 15.9878 6.18155 15.6986 6.45534L16.2142 7ZM12.4843 9.4982L11.9396 10.0138L12.9708 11.1031L13.5155 10.5875L12.4843 9.4982ZM19.9441 9.4982L16.7298 6.45534L15.6986 7.54466L18.9129 10.5875L19.9441 9.4982ZM15.6986 6.45534L12.4843 9.4982L13.5155 10.5875L16.7298 7.54466L15.6986 6.45534ZM16.9642 18.7857L16.9642 7L15.4642 7L15.4642 18.7857L16.9642 18.7857Z" fill="currentColor"/>
</svg>
