<svg viewBox="0 0 32 32" fill="none" xmlns="http://www.w3.org/2000/svg">
<path d="M11 8.00012H8V24.0001H24V8.00012H20.5" stroke="currentColor" stroke-width="1.5" stroke-linecap="round" stroke-linejoin="round"/>
<path d="M13.5156 15.1983L12.971 14.6826L11.9397 15.772L12.4844 16.2876L13.5156 15.1983ZM16.2143 18.7858L15.6987 19.3304C15.9879 19.6042 16.4407 19.6042 16.7299 19.3304L16.2143 18.7858ZM19.9442 16.2876L20.4888 15.772L19.4576 14.6826L18.913 15.1983L19.9442 16.2876ZM12.4844 16.2876L15.6987 19.3304L16.7299 18.2411L13.5156 15.1983L12.4844 16.2876ZM16.7299 19.3304L19.9442 16.2876L18.913 15.1983L15.6987 18.2411L16.7299 19.3304ZM15.4643 7.00005L15.4643 18.7858L16.9643 18.7858L16.9643 7.00005L15.4643 7.00005Z" fill="currentColor"/>
</svg>
