<svg viewBox="0 0 32 32" fill="none" xmlns="http://www.w3.org/2000/svg">
  <ellipse cx="15.6469" cy="13.647" rx="3.23529" ry="3.23529" stroke="currentColor" stroke-width="1.2"/>
  <path d="M22.9294 13.7647C22.9294 14.6955 22.5388 15.8948 21.8786 17.2177C21.2259 18.5255 20.3421 19.891 19.4282 21.1353C18.5151 22.3784 17.5818 23.4873 16.8379 24.281C16.465 24.6789 16.1471 24.9897 15.9082 25.1966C15.8541 25.2435 15.8063 25.283 15.7647 25.3159C15.7231 25.283 15.6753 25.2435 15.6212 25.1966C15.3823 24.9897 15.0644 24.6789 14.6915 24.281C13.9476 23.4873 13.0143 22.3784 12.1012 21.1353C11.1873 19.891 10.3035 18.5255 9.65082 17.2177C8.99061 15.8948 8.6 14.6955 8.6 13.7647C8.6 9.80775 11.8077 6.6 15.7647 6.6C19.7217 6.6 22.9294 9.80775 22.9294 13.7647Z" stroke="currentColor" stroke-width="1.2"/>
</svg>
