<svg viewBox="0 0 32 32" fill="none" xmlns="http://www.w3.org/2000/svg">
<path d="M18.5875 16.4786L19.0232 16.8911L19.8482 16.0196L19.4125 15.6071L18.5875 16.4786ZM15.7857 13L16.1982 12.5643C15.9668 12.3452 15.6046 12.3452 15.3732 12.5643L15.7857 13ZM12.1589 15.6071L11.7232 16.0196L12.5482 16.8911L12.9839 16.4786L12.1589 15.6071ZM19.4125 15.6071L16.1982 12.5643L15.3732 13.4357L18.5875 16.4786L19.4125 15.6071ZM15.3732 12.5643L12.1589 15.6071L12.9839 16.4786L16.1982 13.4357L15.3732 12.5643ZM16.3857 24.7857L16.3857 13L15.1857 13L15.1857 24.7857L16.3857 24.7857Z" fill="currentColor"/>
<path d="M10.7095 24.0822C10.8872 24.3948 11.2192 24.588 11.5788 24.588H20.4155C20.775 24.588 21.1068 24.395 21.2846 24.0826L25.7186 16.2914C25.8931 15.9849 25.8931 15.6091 25.7188 15.3025L21.2846 7.50564C21.1068 7.19307 20.7749 7 20.4153 7H11.579C11.2193 7 10.8872 7.19326 10.7095 7.50609L6.28066 15.3029C6.10662 15.6093 6.10667 15.9847 6.2808 16.291L10.7095 24.0822Z" stroke="currentColor" stroke-width="1.2" stroke-miterlimit="10" stroke-linecap="round"/>
</svg>
