<svg viewBox="0 0 24 24" fill="none" xmlns="http://www.w3.org/2000/svg">
<path d="M13.8972 11.7646L21.1146 7.966C21.4793 7.77406 21.4682 7.2481 21.0958 7.07168L13.7843 3.60833C12.9714 3.22328 12.0286 3.22328 11.2157 3.60833L3.90424 7.07168C3.53179 7.2481 3.52071 7.77406 3.88541 7.966L11.1028 11.7646C11.9774 12.2249 13.0226 12.2249 13.8972 11.7646Z" stroke="currentColor" stroke-width="1.2"/>
<path d="M17.7778 9.5L21.0958 11.0717C21.4682 11.2481 21.4793 11.7741 21.1146 11.966L13.8972 15.7646C13.0226 16.2249 11.9774 16.2249 11.1028 15.7646L3.88541 11.966C3.52071 11.7741 3.53179 11.2481 3.90424 11.0717L7 9.60526" stroke="currentColor" stroke-width="1.2"/>
<path d="M17.7778 13.5L21.0958 15.0717C21.4682 15.2481 21.4793 15.7741 21.1146 15.966L13.8972 19.7646C13.0226 20.2249 11.9774 20.2249 11.1028 19.7646L3.88541 15.966C3.52071 15.7741 3.53179 15.2481 3.90424 15.0717L7 13.6053" stroke="currentColor" stroke-width="1.2"/>
</svg>
