<svg viewBox="0 0 600 600" fill="none" xmlns="http://www.w3.org/2000/svg">
<path fill="none" stroke="currentColor" stroke-width="30" d="M333.9,301.5l180.4-95c9.1-4.8,8.8-17.9-0.5-22.4L331,97.6c-20.3-9.6-43.9-9.6-64.2,0L84,184.2
	c-9.3,4.4-9.6,17.6-0.5,22.4l180.4,95C285.9,313,312,313,333.9,301.5z M436.4,247.5l77.4,36.7c9.3,4.4,9.6,17.6,0.5,22.4l-180.4,95c-21.9,11.5-48,11.5-69.9,0l-180.4-95
	c-9.1-4.8-8.8-17.9,0.5-22.4l77.4-36.7 M436.4,347.5l77.4,36.7c9.3,4.4,9.6,17.6,0.5,22.4l-180.4,95c-21.9,11.5-48,11.5-69.9,0l-180.4-95
	c-9.1-4.8-8.8-17.9,0.5-22.4l77.4-36.7"/>
</svg>