<svg viewBox="0 0 24 24" fill="none" xmlns="http://www.w3.org/2000/svg">
<path d="M6.03149 15.792C5.99682 15.792 5.95349 15.779 5.90149 15.753C5.84949 15.727 5.80616 15.7053 5.77149 15.688L1.37749 12.685C1.24749 12.5983 1.15215 12.5117 1.09149 12.425C1.03082 12.3383 1.00049 12.2343 1.00049 12.113V11.788C1.00049 11.6667 1.03082 11.5627 1.09149 11.476C1.15215 11.3893 1.24749 11.3027 1.37749 11.216L5.77149 8.21301C5.80616 8.19568 5.84949 8.17401 5.90149 8.14801C5.95349 8.12201 5.99682 8.10901 6.03149 8.10901C6.10082 8.10901 6.16149 8.13501 6.21349 8.18701C6.26549 8.23034 6.29149 8.29101 6.29149 8.36901V9.35701C6.29149 9.47834 6.26116 9.57368 6.20049 9.64301C6.13982 9.71234 6.06182 9.77301 5.96649 9.82501L2.80749 11.944L5.96649 14.076C6.06182 14.1367 6.13982 14.2017 6.20049 14.271C6.26116 14.3317 6.29149 14.4227 6.29149 14.544V15.532C6.29149 15.61 6.26549 15.675 6.21349 15.727C6.16149 15.7703 6.10082 15.792 6.03149 15.792Z" fill="currentColor"/>
<path d="M9.28466 17.092C9.21533 17.092 9.15466 17.066 9.10266 17.014C9.05066 16.962 9.02466 16.897 9.02466 16.819C9.02466 16.7843 9.03332 16.7366 9.05066 16.676L13.4707 6.05498C13.5053 5.99432 13.553 5.93365 13.6137 5.87298C13.6743 5.81232 13.761 5.78198 13.8737 5.78198H14.7187C14.788 5.78198 14.8487 5.80798 14.9007 5.85998C14.9613 5.91198 14.9917 5.97698 14.9917 6.05498C14.9917 6.08965 14.9787 6.13732 14.9527 6.19798L10.5197 16.819C10.4937 16.871 10.4503 16.9273 10.3897 16.988C10.329 17.0573 10.238 17.092 10.1167 17.092H9.28466Z" fill="currentColor"/>
<path d="M18.2605 15.792C18.1912 15.792 18.1305 15.7703 18.0785 15.727C18.0265 15.675 18.0005 15.6057 18.0005 15.519V14.544C18.0005 14.414 18.0308 14.3187 18.0915 14.258C18.1522 14.1887 18.2302 14.128 18.3255 14.076L21.4845 11.944L18.3255 9.82501C18.2302 9.76434 18.1522 9.70368 18.0915 9.64301C18.0308 9.57368 18.0005 9.47834 18.0005 9.35701V8.36901C18.0005 8.28234 18.0265 8.21734 18.0785 8.17401C18.1305 8.13068 18.1912 8.10901 18.2605 8.10901C18.3038 8.10901 18.3515 8.12201 18.4035 8.14801C18.4555 8.16534 18.4988 8.18701 18.5335 8.21301L22.9145 11.216C23.0445 11.3027 23.1398 11.3893 23.2005 11.476C23.2612 11.554 23.2915 11.658 23.2915 11.788V12.1C23.2915 12.23 23.2612 12.3383 23.2005 12.425C23.1398 12.5117 23.0445 12.5983 22.9145 12.685L18.5335 15.688C18.4988 15.7053 18.4555 15.727 18.4035 15.753C18.3515 15.779 18.3038 15.792 18.2605 15.792Z" fill="currentColor"/>
</svg>
