<svg viewBox="0 0 600 600" fill="none" version="1.1" xmlns="http://www.w3.org/2000/svg">
	<g fill="none" stroke="currentColor" stroke-width="30" stroke-miterlimit="10">
		<circle cx="300.8" cy="302.3" r="66.4"/>
    <path d="M524.1,270.6c0-5-3.8-9.1-8.8-9.6l-53.9-4.7c-3.5-12.1-8.3-23.6-14.2-34.4l34.9-41.6c3.2-3.8,2.9-9.4-0.6-13
			c0,0-11.4-14.9-21.6-25.1c-10.2-10.2-23.7-20.2-23.7-20.2c-3.5-3.5-9.1-3.8-13-0.6l-41.5,34.8c-10.8-6-22.3-10.8-34.4-14.3
			l-4.8-54.1c-0.4-5-4.6-8.8-9.6-8.8c0,0-18.6-2.5-33.1-2.5S269,79,269,79c-5,0-9.1,3.8-9.6,8.8l-4.7,53.9
			c-12.1,3.5-23.6,8.3-34.4,14.2L178.7,121c-3.8-3.2-9.4-2.9-13,0.6c0,0-14.9,11.4-25.1,21.6c-10.2,10.2-20.2,23.7-20.2,23.7
			c-3.5,3.5-3.8,9.1-0.6,13l34.8,41.5c-6,10.8-10.8,22.3-14.3,34.4l-54.1,4.8c-5,0.4-8.8,4.6-8.8,9.6c0,0-2.5,18.6-2.5,33.1
			c0,14.4,2.5,31,2.5,31c0,5,3.8,9.1,8.8,9.6l53.9,4.7c3.5,12.1,8.3,23.6,14.2,34.4l-34.9,41.6c-3.2,3.8-2.9,9.4,0.6,13
			c0,0,11.4,14.9,21.6,25.1c10.2,10.2,23.7,20.2,23.7,20.2c3.5,3.5,9.1,3.8,13,0.6l41.5-34.8c10.8,6,22.3,10.8,34.4,14.3l4.8,54.1
			c0.4,5,4.6,8.8,9.6,8.8c0,0,18.6,2.5,33.1,2.5c14.4,0,31-2.5,31-2.5c5,0,9.1-3.8,9.6-8.8l4.7-53.9c12.1-3.5,23.6-8.3,34.4-14.2
			l41.6,34.9c3.8,3.2,9.4,2.9,13-0.6c0,0,14.9-11.4,25.1-21.6c10.2-10.2,20.2-23.7,20.2-23.7c3.5-3.5,3.8-9.1,0.6-13l-34.8-41.5
			c6-10.8,10.8-22.3,14.3-34.4l54.1-4.8c5-0.4,8.8-4.6,8.8-9.6c0,0,2.5-18.6,2.5-33.1C526.6,287.1,524.1,270.6,524.1,270.6z"/>
	</g>
</svg>