<svg viewBox="0 0 600 600" fill="none" xmlns="http://www.w3.org/2000/svg">
  <g stroke="currentColor" stroke-width="30" stroke-linecap="round" stroke-miterlimit="10" fill="none">
    <polygon points="345.4,63.8 254.5,63.8 209,142.5 254.5,221.3 345.4,221.3 390.8,142.5"/>
    <polygon points="345.4,221.3 254.5,221.3 209,300 254.5,378.7 345.4,378.7 390.8,300"/>
    <polygon points="345.4,378.7 254.5,378.7 209,457.5 254.5,536.2 345.4,536.2 390.8,457.5"/>
    <polygon points="209,142.5 118,142.5 72.6,221.3 118,300 209,300 254.4,221.3"/>
    <polygon points="209,300 118,300 72.6,378.7 118,457.5 209,457.5 254.4,378.7"/>
    <polygon points="482,142.5 391,142.5 345.6,221.3 391,300 482,300 527.4,221.3"/>
    <polygon points="482,300 391,300 345.6,378.7 391,457.5 482,457.5 527.4,378.7"/>
  </g>
</svg>