<svg viewBox="0 0 24 24" fill="none" xmlns="http://www.w3.org/2000/svg">
<path d="M10.088 22H13.8775L15.7712 18.6663L13.8775 15.3326H10.088L8.19434 18.6663L10.088 22Z" stroke="currentColor" stroke-width="1.2" stroke-miterlimit="10" stroke-linecap="round"/>
<path d="M15.8026 18.6662H19.5922L21.4858 15.3325L19.5922 11.9988H15.8026L13.9067 15.3325L15.8026 18.6662Z" stroke="currentColor" stroke-width="1.2" stroke-miterlimit="10" stroke-linecap="round"/>
<path d="M15.7512 11.9989H19.5407L21.4366 8.66745L19.5407 5.33374H15.7512L13.8575 8.66745L15.7512 11.9989Z" stroke="currentColor" stroke-width="1.2" stroke-miterlimit="10" stroke-linecap="round"/>
<path d="M4.3959 11.9989H8.18545L10.0791 8.66745L8.18545 5.33374H4.3959L2.5 8.66745L4.3959 11.9989Z" stroke="currentColor" stroke-width="1.2" stroke-miterlimit="10" stroke-linecap="round"/>
<path d="M10.0924 8.66742H13.8819L15.7778 5.33371L13.8819 2H10.0924L8.19873 5.33371L10.0924 8.66742Z" stroke="currentColor" stroke-width="1.2" stroke-miterlimit="10" stroke-linecap="round"/>
<path d="M4.3959 18.6663H8.18545L10.0791 15.3325L8.18545 11.9988H4.3959L2.5 15.3325L4.3959 18.6663Z" stroke="currentColor" stroke-width="1.2" stroke-miterlimit="10" stroke-linecap="round"/>
</svg>
