<svg viewBox="0 0 24 24" fill="none" xmlns="http://www.w3.org/2000/svg">
<path d="M20.9258 10.7068C20.9258 10.599 20.8719 10.5539 20.764 10.5449L18.5627 10.3295C18.5241 10.3301 18.4866 10.3165 18.4569 10.2918C18.4272 10.2671 18.4074 10.2329 18.401 10.1948C18.2776 9.73362 18.0965 9.28965 17.8619 8.87384C17.8303 8.83779 17.8129 8.79147 17.8129 8.74354C17.8129 8.6956 17.8303 8.64929 17.8619 8.61324L19.2366 6.92416C19.3085 6.8433 19.3085 6.79839 19.2366 6.71752C18.7013 5.98458 18.0558 5.3391 17.3228 4.80382C17.311 4.79044 17.2965 4.77958 17.2803 4.77223C17.264 4.76489 17.2463 4.76127 17.2285 4.76127C17.2106 4.76127 17.193 4.76489 17.1767 4.77223C17.1605 4.77958 17.146 4.79044 17.1342 4.80382L15.436 6.17834C15.3999 6.20993 15.3536 6.22747 15.3057 6.22747C15.2577 6.22747 15.2114 6.20993 15.1754 6.17834C14.7638 5.94165 14.3227 5.76029 13.8636 5.63915C13.8216 5.63251 13.7835 5.61053 13.7569 5.57729C13.7303 5.54404 13.7171 5.5022 13.7198 5.45971C13.6569 4.80381 13.5851 4.14795 13.5132 3.49205C13.5132 3.37524 13.5131 3.23138 13.4592 3.1595C13.4053 3.08762 13.2346 3.10552 13.1178 3.08755C12.3043 2.97082 11.4784 2.97082 10.6649 3.08755C10.6441 3.08751 10.6235 3.0916 10.6043 3.09983C10.5852 3.10806 10.5679 3.12022 10.5536 3.13537C10.5393 3.15052 10.5282 3.16843 10.5211 3.18801C10.514 3.2076 10.511 3.22863 10.5122 3.24943C10.4403 3.9862 10.3595 4.71394 10.2876 5.44172C10.2876 5.54056 10.2876 5.58543 10.1528 5.61239C9.69635 5.72876 9.25793 5.90699 8.8499 6.14236C8.81241 6.17462 8.76467 6.19237 8.71521 6.19237C8.66575 6.19237 8.61791 6.17462 8.58042 6.14236L6.88224 4.75863L6.78342 4.68668L6.69359 4.74986C5.96502 5.28672 5.32006 5.92831 4.77978 6.65435C4.7079 6.75318 4.72587 6.79811 4.77978 6.87897L6.17239 8.58648C6.1972 8.61693 6.21077 8.65468 6.21077 8.69396C6.21077 8.73324 6.1972 8.77143 6.17239 8.80189C5.93198 9.22019 5.74485 9.6669 5.61532 10.1317C5.61532 10.2305 5.55249 10.2666 5.45365 10.2756L3.25226 10.5002C3.16241 10.5002 3.11756 10.5001 3.10858 10.6349C2.96381 11.5275 2.96381 12.4377 3.10858 13.3304C3.10858 13.4472 3.17142 13.4833 3.27924 13.4923L5.45365 13.7077C5.49569 13.7068 5.53664 13.7209 5.56947 13.7472C5.60231 13.7734 5.62491 13.8104 5.63331 13.8516C5.75445 14.3107 5.9357 14.7517 6.17239 15.1633C6.20333 15.1979 6.22043 15.2428 6.22043 15.2893C6.22043 15.3357 6.20333 15.3801 6.17239 15.4147L4.78877 17.113C4.77366 17.1257 4.76146 17.1417 4.75312 17.1595C4.74479 17.1774 4.74051 17.1969 4.74051 17.2166C4.74051 17.2363 4.74479 17.2557 4.75312 17.2736C4.76146 17.2914 4.77366 17.307 4.78877 17.3197C5.3261 18.0426 5.96807 18.6819 6.69359 19.2158C6.70614 19.2325 6.72236 19.2459 6.74108 19.2553C6.75979 19.2646 6.78048 19.2693 6.8014 19.2693C6.82233 19.2693 6.8429 19.2646 6.86162 19.2553C6.88033 19.2459 6.89666 19.2325 6.90922 19.2158L8.62528 17.8229C8.63868 17.809 8.6548 17.7979 8.67255 17.7904C8.6903 17.7829 8.70942 17.779 8.7287 17.779C8.74799 17.779 8.767 17.7829 8.78475 17.7904C8.8025 17.7979 8.81862 17.809 8.83202 17.8229C9.16424 18.0268 9.52439 18.1814 9.90119 18.2813C10.2516 18.3532 10.3235 18.5418 10.3504 18.8653C10.3504 19.4942 10.4672 20.1233 10.5391 20.7522C10.5391 20.8421 10.5391 20.8689 10.6649 20.8869C11.5571 21.0377 12.4682 21.0377 13.3604 20.8869C13.4682 20.8869 13.4862 20.8328 13.4952 20.743C13.5671 20.0152 13.6479 19.2873 13.7198 18.5595C13.7198 18.4427 13.7199 18.3978 13.8726 18.3708C14.3304 18.2459 14.771 18.0651 15.1844 17.8321C15.2175 17.8018 15.2608 17.7847 15.3057 17.7847C15.3506 17.7847 15.3939 17.8018 15.427 17.8321C15.9841 18.2903 16.5501 18.7304 17.1072 19.2066C17.206 19.2875 17.26 19.2785 17.3588 19.2066C18.0663 18.6743 18.6954 18.0451 19.2276 17.3376C19.2434 17.3225 19.2559 17.3046 19.2645 17.2846C19.2731 17.2645 19.2775 17.2428 19.2775 17.2209C19.2775 17.1991 19.2731 17.1774 19.2645 17.1573C19.2559 17.1373 19.2434 17.1193 19.2276 17.1042L17.8439 15.406C17.8136 15.3728 17.7969 15.3298 17.7969 15.2849C17.7969 15.24 17.8136 15.1965 17.8439 15.1633C18.0339 14.8229 18.1904 14.4649 18.3111 14.0942C18.4369 13.7078 18.4369 13.7168 18.8502 13.6809L20.755 13.483C20.8539 13.483 20.8809 13.4382 20.8988 13.3484C21.0424 12.4743 21.0515 11.5836 20.9258 10.7068ZM12.0396 14.7501C11.3247 14.7501 10.6391 14.4659 10.1336 13.9604C9.62809 13.4549 9.34412 12.7695 9.34412 12.0546C9.34412 11.3397 9.62809 10.6538 10.1336 10.1483C10.6391 9.64282 11.3247 9.35906 12.0396 9.35906C12.7545 9.35906 13.4401 9.64282 13.9456 10.1483C14.4512 10.6538 14.7351 11.3397 14.7351 12.0546C14.7304 12.7663 14.4443 13.4473 13.9393 13.949C13.4343 14.4506 12.7514 14.7321 12.0396 14.7321V14.7501Z" stroke="currentColor" stroke-width="1.2" stroke-miterlimit="10"/>
</svg>
