<svg width="10" height="10" viewBox="0 0 10 10" fill="none" xmlns="http://www.w3.org/2000/svg">
  <g clip-path="url(#clip0_5301_134187)">
    <path fill-rule="evenodd" clip-rule="evenodd" d="M9.6206 6.91394L8.69687 6.53089C8.89187 6.06064 9 5.54421 9 5C9 4.45579 8.89187 3.93936 8.69687 3.46911L9.6206 3.08606C9.86507 3.6756 10 4.32204 10 5C10 5.67796 9.86507 6.3244 9.6206 6.91394ZM6.91394 0.379403L6.53089 1.30313C6.06064 1.10813 5.54421 1 5 1C4.45579 1 3.93936 1.10813 3.46911 1.30313L3.08606 0.379403C3.6756 0.134931 4.32204 0 5 0C5.67796 0 6.3244 0.134931 6.91394 0.379403ZM0.379402 3.08606C0.134931 3.6756 0 4.32204 0 5C0 5.67796 0.134931 6.3244 0.379403 6.91394L1.30313 6.53089C1.10813 6.06064 1 5.54421 1 5C1 4.45579 1.10813 3.93936 1.30313 3.46912L0.379402 3.08606ZM3.08606 9.6206L3.46912 8.69687C3.93936 8.89187 4.45579 9 5 9C5.54421 9 6.06064 8.89187 6.53089 8.69687L6.91394 9.6206C6.3244 9.86507 5.67796 10 5 10C4.32204 10 3.6756 9.86507 3.08606 9.6206Z" fill="currentColor"/>
  </g>
  <defs>
    <clipPath id="clip0_5301_134187">
      <rect width="10" height="10" fill="white"/>
    </clipPath>
  </defs>
</svg>
