<svg viewBox="0 0 25 24" fill="none" xmlns="http://www.w3.org/2000/svg">
<path d="M20.1269 8.96452L23.417 12.3506M23.417 12.3506L20.1355 15.5681M23.417 12.3506L12.5703 12.3366" stroke="currentColor" stroke-width="1.2" stroke-miterlimit="10" stroke-linecap="round" stroke-linejoin="round"/>
<path d="M6.00037 3.42859V2.82859C5.669 2.82859 5.40037 3.09722 5.40037 3.42859H6.00037ZM6.00037 20.5714H5.40037C5.40037 20.9028 5.669 21.1714 6.00037 21.1714V20.5714ZM17.1432 3.42859H17.7432V2.82859H17.1432V3.42859ZM17.1432 20.5714V21.1714H17.7432V20.5714H17.1432ZM16.5432 6.64287C16.5432 6.97425 16.8119 7.24287 17.1432 7.24287C17.4746 7.24287 17.7432 6.97425 17.7432 6.64287H16.5432ZM17.7432 17.3572C17.7432 17.0258 17.4746 16.7572 17.1432 16.7572C16.8119 16.7572 16.5432 17.0258 16.5432 17.3572H17.7432ZM6.60037 20.5714V3.42859H5.40037V20.5714H6.60037ZM6.00037 4.02859H17.1432V2.82859H6.00037V4.02859ZM17.1432 19.9714H6.00037V21.1714H17.1432V19.9714ZM16.5432 3.42859V6.64287H17.7432V3.42859H16.5432ZM17.7432 20.5714V17.3572H16.5432V20.5714H17.7432Z" fill="currentColor"/>
</svg>
