<svg viewBox="0 0 24 24" fill="none" xmlns="http://www.w3.org/2000/svg">
<path d="M11.5317 4.25247C11.6936 3.8193 12.3064 3.8193 12.4683 4.25247L14.1059 8.63196C14.1762 8.81988 14.352 8.9476 14.5524 8.95636L19.2236 9.16047C19.6856 9.18066 19.875 9.76339 19.5131 10.0513L15.854 12.9621C15.697 13.087 15.6298 13.2936 15.6834 13.487L16.9328 17.9926C17.0563 18.4383 16.5606 18.7984 16.175 18.5432L12.276 15.9626C12.1086 15.8519 11.8914 15.8519 11.724 15.9626L7.825 18.5432C7.43935 18.7984 6.94366 18.4383 7.06723 17.9926L8.31658 13.487C8.37019 13.2936 8.30305 13.087 8.14603 12.9621L4.48694 10.0513C4.12502 9.76339 4.31436 9.18066 4.77638 9.16047L9.44757 8.95636C9.64801 8.9476 9.8238 8.81988 9.89407 8.63196L11.5317 4.25247Z" stroke="currentColor"/>
</svg>
