<svg viewBox="0 0 24 24" fill="none" xmlns="http://www.w3.org/2000/svg">
<path d="M11.9566 14.9656C11.8532 14.9656 11.7704 14.9345 11.7083 14.8725C11.6463 14.8104 11.6152 14.7276 11.6152 14.6242C11.6152 14.5 11.6152 14.3759 11.6152 14.2517C11.6152 14.1276 11.6152 14.0034 11.6152 13.8793C11.6152 13.4034 11.7032 12.9844 11.879 12.6223C12.0549 12.2602 12.2722 11.9343 12.5308 11.6447C12.7894 11.3446 13.0533 11.0653 13.3222 10.8067C13.5912 10.5377 13.824 10.2635 14.0206 9.98419C14.2171 9.70486 14.3361 9.40484 14.3775 9.08413C14.4292 8.64962 14.3464 8.28235 14.1292 7.98233C13.9119 7.68231 13.6171 7.45471 13.2446 7.29952C12.8722 7.14434 12.4843 7.06675 12.0808 7.06675C11.4807 7.06675 10.9531 7.22711 10.4979 7.54782C10.0427 7.86853 9.74786 8.42719 9.61336 9.2238C9.59267 9.35829 9.54612 9.4514 9.4737 9.50312C9.40128 9.54451 9.32369 9.5652 9.24093 9.5652H8.99263C8.89952 9.5652 8.82193 9.53933 8.75986 9.48761C8.69778 9.42553 8.66675 9.34794 8.66675 9.25483C8.67709 8.82032 8.76503 8.41684 8.93056 8.0444C9.10643 7.67196 9.34438 7.34608 9.6444 7.06675C9.95477 6.78742 10.3117 6.57016 10.7152 6.41498C11.129 6.24945 11.5842 6.16669 12.0808 6.16669C12.6498 6.16669 13.1412 6.24945 13.555 6.41498C13.9792 6.58051 14.3258 6.80294 14.5947 7.08227C14.8637 7.35125 15.0603 7.66162 15.1844 8.01337C15.3086 8.35477 15.3551 8.70652 15.3241 9.06861C15.2931 9.50312 15.1793 9.89108 14.9827 10.2325C14.7861 10.5635 14.5534 10.8739 14.2844 11.1636C14.0154 11.4429 13.7464 11.7222 13.4774 12.0016C13.2188 12.2706 13.0015 12.5602 12.8257 12.8706C12.6498 13.1706 12.5618 13.5068 12.5618 13.8793C12.5618 14.0034 12.5618 14.1276 12.5618 14.2517C12.5618 14.3759 12.5618 14.5 12.5618 14.6242C12.5618 14.7276 12.5308 14.8104 12.4687 14.8725C12.4067 14.9345 12.3239 14.9656 12.2204 14.9656H11.9566ZM11.7704 17.1847C11.667 17.1847 11.5842 17.1537 11.5221 17.0916C11.46 17.0295 11.429 16.9467 11.429 16.8433V16.2536C11.429 16.1501 11.46 16.0674 11.5221 16.0053C11.5842 15.9329 11.667 15.8967 11.7704 15.8967H12.3601C12.4636 15.8967 12.5463 15.9329 12.6084 16.0053C12.6808 16.0674 12.717 16.1501 12.717 16.2536V16.8433C12.717 16.9467 12.6808 17.0295 12.6084 17.0916C12.5463 17.1537 12.4636 17.1847 12.3601 17.1847H11.7704Z" fill="currentColor" stroke="currentColor" stroke-width="0.3"/>
<circle cx="12" cy="12" r="9.4" stroke="currentColor" stroke-width="1.2"/>
</svg>
