<svg viewBox="0 0 24 24" fill="none" xmlns="http://www.w3.org/2000/svg">
<circle cx="12.0004" cy="12" r="11.4" stroke="currentColor" stroke-width="1.2"/>
<path d="M11.6554 6.74C11.6754 6.31 11.8304 5.98 12.1204 5.75C12.4204 5.52 12.7754 5.405 13.1854 5.405C13.5554 5.405 13.8354 5.495 14.0254 5.675C14.2254 5.845 14.3154 6.085 14.2954 6.395C14.2754 6.785 14.1154 7.105 13.8154 7.355C13.5154 7.595 13.1554 7.715 12.7354 7.715C12.3854 7.715 12.1104 7.63 11.9104 7.46C11.7204 7.28 11.6354 7.04 11.6554 6.74ZM11.0854 10.52C11.2554 10.02 11.2004 9.77 10.9204 9.77C10.7404 9.77 10.5754 9.86 10.4254 10.04C10.2754 10.22 10.1204 10.525 9.96037 10.955L9.66037 11.72H9.37537L9.79537 10.58C9.93537 10.18 10.1104 9.87 10.3204 9.65C10.5404 9.43 10.7804 9.275 11.0404 9.185C11.3104 9.085 11.5904 9.035 11.8804 9.035C12.2304 9.035 12.5054 9.1 12.7054 9.23C12.9054 9.36 13.0404 9.53 13.1104 9.74C13.1804 9.94 13.2054 10.165 13.1854 10.415C13.1654 10.655 13.1154 10.895 13.0354 11.135L11.4604 15.725C11.3704 15.995 11.3454 16.19 11.3854 16.31C11.4354 16.42 11.5304 16.475 11.6704 16.475C11.8004 16.475 11.9404 16.4 12.0904 16.25C12.2504 16.1 12.4254 15.78 12.6154 15.29L12.8854 14.57H13.1704L12.7804 15.665C12.6404 16.075 12.4604 16.39 12.2404 16.61C12.0204 16.83 11.7804 16.985 11.5204 17.075C11.2704 17.165 11.0154 17.21 10.7554 17.21C10.3254 17.21 9.99537 17.115 9.76537 16.925C9.54537 16.735 9.42537 16.46 9.40537 16.1C9.38537 15.74 9.45537 15.315 9.61537 14.825L11.0854 10.52Z" fill="currentColor"/>
</svg>
