<svg viewBox="0 0 600 600" fill="none" xmlns="http://www.w3.org/2000/svg">
	<path fill="currentColor" d="M383.1,199.1c-3.3-9.3-8.5-17.6-15.6-24.6c-7.1-7.3-16.3-13.3-27.3-17.6c-10.7-4.3-23.6-6.5-38.2-6.5
		c-12.8,0-24.8,2.2-35.5,6.5c-10.5,4-19.9,9.7-28,17c-7.8,7.3-14.1,15.9-18.7,25.7c-4.3,9.7-6.6,20.4-6.9,31.8
		c0,3.3,1.2,6.2,3.4,8.5l0.3,0.2c2.2,1.9,5,2.8,8.2,2.8h6.2c2.7,0,5.3-0.7,7.7-2l0.3-0.2c2.7-1.9,4.3-5.1,5-9.4
		c3.2-18.8,10.1-32.1,20.6-39.5c10.7-7.5,23.3-11.3,37.4-11.3c9.5,0,18.8,1.9,27.7,5.5c8.6,3.6,15.5,8.9,20.5,15.8
		c4.9,6.8,6.7,14.9,5.5,24.9c-1,7.4-3.7,14.4-8.3,20.8c-4.8,6.8-10.5,13.5-17,20c-6.8,6.5-13.5,13.7-20,21.2
		c-6.7,7.5-12.3,16-16.9,25.3c-4.6,9.5-7,20.7-7,33.1v18.6c0,3.6,1.2,6.6,3.4,8.9c2.3,2.3,5.3,3.4,8.9,3.4h6.6
		c3.6,0,6.6-1.2,8.9-3.4c2.3-2.3,3.4-5.3,3.4-8.9V347c0-8.6,2-16.4,6.1-23.4c4.2-7.4,9.5-14.5,15.7-21l20.2-21
		c6.9-7.4,12.9-15.4,18-24c5.2-9,8.2-19.3,9-30.6C387.7,217.5,386.4,208.1,383.1,199.1z M317.9,397.5c-2.2-2.5-5.3-3.8-8.9-3.8h-14.7c-3.6,0-6.7,1.4-9,3.9c-2.2,2.3-3.3,5.2-3.3,8.8v14.7
		c0,3.6,1.2,6.6,3.4,8.9c2.3,2.3,5.3,3.4,8.9,3.4H309c3.6,0,6.5-1.1,8.8-3.3c2.6-2.3,3.9-5.3,3.9-9v-14.7
		C321.7,402.8,320.4,399.7,317.9,397.5z"/>
  <circle fill="none" stroke="currentColor" stroke-width="30" cx="300" cy="300" r="235" />
</svg>