<svg viewBox="0 0 600 600" fill="none" xmlns="http://www.w3.org/2000/svg">
  <g stroke="currentColor" stroke-width="30" stroke-miterlimit="10" stroke-linecap="round" fill="none">
    <path d="M400,147.7v-75c0-13.8-11.2-25-25-25H225c-13.8,0-25,11.2-25,25v75 M478.3,552.3H121.7c-39.6,0-71.7-32.1-71.7-71.7V219.4c0-39.6,32.1-71.7,71.7-71.7h356.7
      c39.6,0,71.7,32.1,71.7,71.7v261.3C550,520.2,517.9,552.3,478.3,552.3z M222.7,322.7H104.4c-30.1,0-54.4-24.4-54.4-54.4v-48.9c0-39.6,32.1-71.7,71.7-71.7h356.7
      c39.6,0,71.7,32.1,71.7,71.7v48.9c0,30.1-24.4,54.4-54.4,54.4H376.6 M354.1,372.7H245.9c-11.5,0-20.9-9.4-20.9-20.9v-58.2c0-11.5,9.4-20.9,20.9-20.9h108.2
      c11.5,0,20.9,9.4,20.9,20.9v58.2C375,363.3,365.6,372.7,354.1,372.7z"/>
  </g>
</svg>