<svg viewBox="0 0 24 24" fill="none" xmlns="http://www.w3.org/2000/svg">
    <path d="M9.72966 5.90729C11.3306 6.04538 12.769 7.1095 13.2972 8.7341C14.0042 10.8948 12.8259 13.218 10.6642 13.9247C8.50254 14.6314 6.17835 13.4536 5.47134 11.2929C5.28442 10.7161 5 10.838 5 11.5041C5 12.1702 5.09752 12.8525 5.31694 13.5186C6.43027 16.9303 10.1035 18.7904 13.5166 17.6776C16.9298 16.5647 18.7908 12.8931 17.6774 9.48142C16.5641 6.06975 12.8909 4.20957 9.47773 5.32243C9.47773 5.32243 9.09578 5.38741 9.20143 5.64735C9.29895 5.89916 9.72966 5.90729 9.72966 5.90729Z" stroke="currentColor" stroke-width="1.2" stroke-miterlimit="10" stroke-linecap="round" stroke-linejoin="round"/>
</svg>
