<svg viewBox="0 0 24 24" fill="none" xmlns="http://www.w3.org/2000/svg">
<path d="M11.9939 10.5253C14.3481 10.5253 16.2566 8.61683 16.2566 6.26264C16.2566 3.90845 14.3481 2 11.9939 2C9.63968 2 7.7312 3.90845 7.7312 6.26264C7.7312 8.61683 9.63968 10.5253 11.9939 10.5253Z" stroke="currentColor" stroke-width="1.2" stroke-miterlimit="10"/>
<path d="M15.1974 12.7483C15.4975 12.5888 15.7119 12.4224 15.8616 12.2778C16.7695 12.4416 17.6036 12.8938 18.2377 13.5713L18.6758 13.1614L18.2377 13.5713C18.9398 14.3216 19.35 15.2985 19.3941 16.3248V19.8422C19.3225 19.8738 19.2396 19.9095 19.146 19.9485C18.7622 20.1084 18.1999 20.3233 17.4952 20.5387C16.0839 20.9701 14.1131 21.4 11.8688 21.4C9.62555 21.4 7.72243 20.9705 6.38115 20.5411C5.7111 20.3266 5.18326 20.1127 4.82573 19.954C4.7432 19.9173 4.6698 19.8836 4.60586 19.8536V16.3241C4.64724 15.2988 5.05501 14.3221 5.75528 13.5717C6.37768 12.9048 7.19431 12.456 8.08441 12.2857C8.2131 12.4296 8.39192 12.5853 8.63807 12.733C9.24484 13.097 10.2374 13.3997 11.8688 13.3997C13.5044 13.3997 14.544 13.0955 15.1974 12.7483Z" stroke="currentColor" stroke-width="1.2" stroke-miterlimit="10" stroke-linejoin="round"/>
</svg>
