<svg viewBox="0 0 600 600" fill="none" xmlns="http://www.w3.org/2000/svg">
  <path fill="none" stroke="currentColor" stroke-width="30" d="M300,63.8L300,63.8c29,0,52.5,23.5,52.5,52.5l0,0c0,29-23.5,52.5-52.5,52.5l0,0c-29,0-52.5-23.5-52.5-52.5l0,0 C247.5,87.3,271,63.8,300,63.8z M300,431.2L300,431.2c29,0,52.5,23.5,52.5,52.5l0,0c0,29-23.5,52.5-52.5,52.5l0,0c-29,0-52.5-23.5-52.5-52.5
		l0,0C247.5,454.8,271,431.2,300,431.2z M90,431.2L90,431.2c29,0,52.5,23.5,52.5,52.5l0,0c0,29-23.5,52.5-52.5,52.5l0,0c-29,0-52.5-23.5-52.5-52.5l0,0
		C37.5,454.8,61,431.2,90,431.2z M510,431.2L510,431.2c29,0,52.5,23.5,52.5,52.5l0,0c0,29-23.5,52.5-52.5,52.5l0,0c-29,0-52.5-23.5-52.5-52.5
		l0,0C457.5,454.8,481,431.2,510,431.2z M300,168.8v262.5 M90,431.2V323.1c0-12.8,10.4-23.1,23.1-23.1h373.7c12.8,0,23.1,10.4,23.1,23.1v108.1" />
</svg>