<svg viewBox="0 0 600 600" fill="none" xmlns="http://www.w3.org/2000/svg">
  <path fill="none" stroke="currentColor" stroke-width="30" stroke-miterlimit="10" stroke-linejoin="round" d="M402.8,273.4c54.4,0,98.4-44.1,98.4-98.4c0-54.4-44.1-98.4-98.4-98.4s-98.4,44.1-98.4,98.4
	C304.4,229.4,348.4,273.4,402.8,273.4z M160,284.1c43.5,0,78.7-35.2,78.7-78.7c0-43.5-35.2-78.7-78.7-78.7s-78.7,35.2-78.7,78.7
	C81.3,248.8,116.5,284.1,160,284.1z M492.5,315.2c20.5,3.8,39.3,14.1,53.7,29.4c16,17.1,25.4,39.4,26.4,62.8v80.4c-1.6,0.9-54.5,35.6-172.6,35.6
	S234.7,489,233.4,488.1v-80.7c0.9-23.4,10.3-45.7,26.2-62.8c14.1-15.1,32.4-25.3,52.5-29.2c3.8,2.7,33.2,25.6,87.8,25.6
	S488.3,318.1,492.5,315.2z M174.7,396.6c1.3-28,10.2-49.8,19.9-65.6c-11,3.5-24.9,6.2-41.3,6.2c-40.9,0-62.9-17.1-65.8-19.2
		c-15,3-28.8,10.6-39.3,21.9c-12,12.8-18.9,29.5-19.6,47v69.5c1,0.7,36.3,26.4,124.7,26.4c7.5,0,14.6-0.2,21.4-0.5
		C173.7,461,173.1,430.5,174.7,396.6z" />
</svg>