<svg viewBox="0 0 24 25" fill="none" xmlns="http://www.w3.org/2000/svg">
<path d="M16.6123 13.873C18.7864 13.873 20.5488 12.1106 20.5488 9.93651C20.5488 7.76243 18.7864 6 16.6123 6C14.4382 6 12.6758 7.76243 12.6758 9.93651C12.6758 12.1106 14.4382 13.873 16.6123 13.873Z" stroke="currentColor" stroke-width="1.2" stroke-miterlimit="10"/>
<path d="M19.5925 15.9671C19.8622 15.8237 20.0587 15.674 20.1991 15.5414C21.0189 15.6944 21.7716 16.1052 22.3451 16.718C22.9858 17.4026 23.3601 18.2939 23.4006 19.2304V22.4477C23.3412 22.4737 23.2742 22.5025 23.1997 22.5335C22.8465 22.6806 22.3286 22.8786 21.6795 23.077C20.3793 23.4745 18.5639 23.8704 16.4971 23.8704C14.4313 23.8704 12.6786 23.4749 11.4434 23.0794C10.8263 22.8818 10.3404 22.6849 10.0116 22.5389C9.94682 22.5102 9.88817 22.4834 9.83584 22.459V19.2297C9.87381 18.2941 10.246 17.403 10.885 16.7183C11.4472 16.1158 12.183 15.7083 12.9857 15.5493C13.1061 15.6802 13.2697 15.8196 13.4899 15.9517C14.0596 16.2936 14.9852 16.574 16.4971 16.574C18.0131 16.574 18.981 16.2921 19.5925 15.9671Z" stroke="currentColor" stroke-width="1.2" stroke-miterlimit="10" stroke-linejoin="round"/>
<path d="M6.90158 14.2983C8.6408 14.2983 10.0507 12.8884 10.0507 11.1491C10.0507 9.40992 8.6408 8 6.90158 8C5.16236 8 3.75244 9.40992 3.75244 11.1491C3.75244 12.8884 5.16236 14.2983 6.90158 14.2983Z" stroke="currentColor" stroke-width="1.2" stroke-miterlimit="10"/>
<path d="M2.4075 16.6563C2.82509 16.2088 3.36718 15.9012 3.95982 15.7704C4.05795 15.8683 4.18315 15.9689 4.34196 16.0642C4.82218 16.3523 5.58611 16.5791 6.80934 16.5791C7.35004 16.5791 7.80677 16.5348 8.19221 16.462C7.71059 17.3497 7.43683 18.3562 7.40085 19.393C7.40061 19.3999 7.40049 19.4069 7.40049 19.4138V22.1626C7.20659 22.1714 7.00942 22.176 6.80934 22.176C5.17186 22.176 3.78227 21.8624 2.80306 21.5489C2.31405 21.3924 1.92939 21.2365 1.66978 21.1212C1.64558 21.1105 1.62248 21.1001 1.60049 21.0901V18.586C1.63024 17.8671 1.91647 17.1825 2.4075 16.6563Z" stroke="currentColor" stroke-width="1.2" stroke-miterlimit="10" stroke-linejoin="round"/>
</svg>
