<svg viewBox="0 0 36 36" fill="none" xmlns="http://www.w3.org/2000/svg">
    <path d="M13.4304 28.4832H21.8976V33.1392C21.8976 33.707 21.6721 34.2515 21.2706 34.653C20.8691 35.0545 20.3246 35.28 19.7568 35.28H15.5712C15.0034 35.28 14.4589 35.0545 14.0574 34.653C13.656 34.2515 13.4304 33.707 13.4304 33.1392V28.4832V28.4832Z M11.4624 31.6688H23.9424 M15.1968 4.28161C12.7488 4.60801 9.31201 8 9.31201 11.2608 M29.3472 12.4032C29.3458 11.9382 29.3202 11.4735 29.2704 11.0112V10.9344C28.9155 8.11037 27.5418 5.51304 25.4074 3.63011C23.273 1.74717 20.5247 0.708153 17.6784 0.708153C14.8322 0.708153 12.0838 1.74717 9.9494 3.63011C7.81499 5.51304 6.44137 8.11037 6.08643 10.9344V10.9344V11.0112C6.02867 11.4729 5.99979 11.9379 6 12.4032C6.08947 14.278 6.72333 16.0861 7.82402 17.6064C9.09874 19.5168 10.0883 21.6027 10.7616 23.7984L11.424 26.0256C11.6386 26.7368 12.0767 27.3599 12.6732 27.8026C13.2698 28.2452 13.9931 28.4839 14.736 28.4832H20.64C21.3816 28.4834 22.1035 28.2444 22.6985 27.8016C23.2934 27.3589 23.7296 26.736 23.9424 26.0256L24.6144 23.7984C25.2693 21.6058 26.2395 19.52 27.4944 17.6064C28.6084 16.091 29.2526 14.2817 29.3472 12.4032Z" stroke="currentColor" stroke-width="1.5" stroke-miterlimit="10"/>
</svg>
