<svg viewBox="0 0 16 16" fill="none" xmlns="http://www.w3.org/2000/svg">
  <path d="M8.5459 9.92334H7.13037C7.1346 9.52979 7.16846 9.19971 7.23193 8.93311C7.29541 8.66227 7.4012 8.41683 7.54932 8.19678C7.70166 7.97673 7.90267 7.74398 8.15234 7.49854C8.34701 7.31234 8.52262 7.13672 8.6792 6.97168C8.83577 6.80241 8.96061 6.62467 9.05371 6.43848C9.14681 6.24805 9.19336 6.03011 9.19336 5.78467C9.19336 5.51807 9.14893 5.29167 9.06006 5.10547C8.97119 4.91927 8.84001 4.77751 8.6665 4.68018C8.49723 4.58285 8.28564 4.53418 8.03174 4.53418C7.82015 4.53418 7.62126 4.5765 7.43506 4.66113C7.24886 4.74154 7.09863 4.86849 6.98438 5.04199C6.87012 5.21126 6.80876 5.43555 6.80029 5.71484H5.27051C5.27897 5.18164 5.40592 4.73307 5.65137 4.36914C5.89681 4.00521 6.22689 3.73226 6.6416 3.55029C7.05632 3.36833 7.51969 3.27734 8.03174 3.27734C8.5988 3.27734 9.08333 3.37467 9.48535 3.56934C9.88737 3.75977 10.1942 4.03906 10.4058 4.40723C10.6216 4.77116 10.7295 5.21126 10.7295 5.72754C10.7295 6.09993 10.6554 6.43848 10.5073 6.74316C10.3592 7.04362 10.1667 7.32503 9.92969 7.5874C9.69271 7.84554 9.43669 8.10368 9.16162 8.36182C8.92464 8.57764 8.76383 8.8125 8.6792 9.06641C8.59456 9.31608 8.55013 9.60173 8.5459 9.92334ZM7.00342 11.9038C7.00342 11.6753 7.08171 11.4827 7.23828 11.3262C7.39486 11.1654 7.60856 11.085 7.87939 11.085C8.15023 11.085 8.36393 11.1654 8.52051 11.3262C8.67708 11.4827 8.75537 11.6753 8.75537 11.9038C8.75537 12.1323 8.67708 12.327 8.52051 12.4878C8.36393 12.6444 8.15023 12.7227 7.87939 12.7227C7.60856 12.7227 7.39486 12.6444 7.23828 12.4878C7.08171 12.327 7.00342 12.1323 7.00342 11.9038Z" fill="currentColor" />
</svg>