<svg width="131" height="32" viewBox="0 0 131 32" fill="none" xmlns="http://www.w3.org/2000/svg">
<path d="M21.4805 5.68893L18.636 10.6157L12.9471 10.6157L10.1026 5.68893L12.9471 0.762171L18.636 0.762172L21.4805 5.68893Z" stroke="#00A872" stroke-width="1.5"/>
<path d="M21.4805 26.1694L18.636 31.0962L12.9471 31.0962L10.1026 26.1694L12.9471 21.2426L18.636 21.2426L21.4805 26.1694Z" stroke="#00A872" stroke-width="1.5"/>
<path d="M30.5825 21.0483L27.7381 25.9751L22.0491 25.9751L19.2047 21.0483L22.0491 16.1215L27.7381 16.1215L30.5825 21.0483Z" stroke="#00A872" stroke-width="1.5"/>
<path d="M30.5825 10.81L27.7381 15.7368L22.0491 15.7368L19.2047 10.81L22.0491 5.88327L27.7381 5.88327L30.5825 10.81Z" stroke="#00A872" stroke-width="1.5"/>
<path d="M12.3774 10.81L9.53298 15.7368L3.84405 15.7368L0.999585 10.81L3.84405 5.88327L9.53298 5.88327L12.3774 10.81Z" stroke="#00A872" stroke-width="1.5"/>
<path d="M10.1021 10.8079L8.39537 13.7639L4.98202 13.7639L3.27534 10.8079L4.98202 7.85183L8.39537 7.85183L10.1021 10.8079Z" fill="#00A872"/>
<path d="M28.3071 10.8079L26.6005 13.7639L23.1871 13.7639L21.4804 10.8079L23.1871 7.85183L26.6005 7.85183L28.3071 10.8079Z" fill="#00A872"/>
<path d="M19.2046 26.1692L17.4979 29.1253L14.0846 29.1253L12.3779 26.1692L14.0846 23.2132L17.4979 23.2132L19.2046 26.1692Z" fill="#00A872"/>
<path d="M12.3774 21.0483L9.53298 25.9751L3.84405 25.9751L0.999585 21.0483L3.84405 16.1215L9.53298 16.1215L12.3774 21.0483Z" stroke="#00A872" stroke-width="1.5"/>
<path d="M44.9846 10C44.2328 10 43.552 9.83688 42.942 9.51064C42.3392 9.17731 41.864 8.71986 41.5165 8.1383C41.1761 7.55674 41.0059 6.90071 41.0059 6.17021C41.0059 5.43972 41.1796 4.78369 41.5271 4.20213C41.8747 3.62057 42.3498 3.16667 42.9527 2.84043C43.5626 2.50709 44.2434 2.34043 44.9952 2.34043C45.6051 2.34043 46.1619 2.44681 46.6654 2.65957C47.169 2.87234 47.5945 3.18085 47.942 3.58511L47.0484 4.42553C46.5094 3.84397 45.8463 3.55319 45.0591 3.55319C44.5484 3.55319 44.091 3.66667 43.6867 3.89362C43.2825 4.11348 42.9669 4.42199 42.7399 4.81915C42.513 5.21631 42.3995 5.66667 42.3995 6.17021C42.3995 6.67376 42.513 7.12411 42.7399 7.52128C42.9669 7.91844 43.2825 8.2305 43.6867 8.45745C44.091 8.67731 44.5484 8.78723 45.0591 8.78723C45.8463 8.78723 46.5094 8.49291 47.0484 7.90426L47.942 8.75532C47.5945 9.15957 47.1654 9.46809 46.6548 9.68085C46.1512 9.89362 45.5945 10 44.9846 10Z" fill="#73858F"/>
<path d="M49.0331 2H50.3629V9.89362H49.0331V2Z" fill="#73858F"/>
<path d="M57.5019 4.21277V9.89362H56.2359V9.17021C56.0231 9.42553 55.7572 9.62411 55.438 9.76596C55.1189 9.90071 54.7749 9.96808 54.4061 9.96808C53.6473 9.96808 53.048 9.75887 52.6083 9.34043C52.1756 8.91489 51.9593 8.28723 51.9593 7.45745V4.21277H53.2891V7.2766C53.2891 7.78723 53.4026 8.17021 53.6295 8.42553C53.8636 8.67376 54.1934 8.79787 54.6189 8.79787C55.0941 8.79787 55.47 8.65248 55.7465 8.3617C56.0302 8.06383 56.1721 7.6383 56.1721 7.08511V4.21277H57.5019Z" fill="#73858F"/>
<path d="M60.8919 9.96808C60.4309 9.96808 59.9806 9.9078 59.5408 9.78723C59.1011 9.66667 58.7501 9.51418 58.4877 9.32979L58.9983 8.31915C59.2536 8.48936 59.5586 8.62766 59.9132 8.73404C60.2749 8.83333 60.6295 8.88298 60.977 8.88298C61.7713 8.88298 62.1685 8.67376 62.1685 8.25532C62.1685 8.05674 62.0657 7.91844 61.86 7.84043C61.6614 7.76241 61.3387 7.68794 60.8919 7.61702C60.4238 7.5461 60.0408 7.46454 59.743 7.37234C59.4522 7.28014 59.1969 7.12057 58.977 6.89362C58.7643 6.65957 58.6579 6.33688 58.6579 5.92553C58.6579 5.38653 58.8813 4.95745 59.3281 4.6383C59.782 4.31206 60.3919 4.14894 61.1579 4.14894C61.5479 4.14894 61.938 4.19504 62.3281 4.28723C62.7182 4.37234 63.0373 4.48936 63.2855 4.6383L62.7749 5.64894C62.2926 5.36525 61.7501 5.2234 61.1472 5.2234C60.7572 5.2234 60.4593 5.28369 60.2536 5.40426C60.055 5.51773 59.9557 5.67021 59.9557 5.8617C59.9557 6.07447 60.0621 6.22695 60.2749 6.31915C60.4947 6.40426 60.8316 6.48582 61.2855 6.56383C61.7394 6.63475 62.1118 6.71631 62.4025 6.80851C62.6933 6.90071 62.9416 7.05674 63.1472 7.2766C63.36 7.49645 63.4664 7.80851 63.4664 8.21277C63.4664 8.74468 63.2359 9.17021 62.7749 9.48936C62.3139 9.80851 61.6862 9.96808 60.8919 9.96808Z" fill="#73858F"/>
<path d="M67.9201 9.58511C67.7641 9.71277 67.5726 9.80851 67.3456 9.87234C67.1258 9.93617 66.8917 9.96808 66.6435 9.96808C66.0194 9.96808 65.5371 9.80497 65.1967 9.47872C64.8563 9.15248 64.686 8.67731 64.686 8.05319V5.31915H63.7499V4.25532H64.686V2.95745H66.0158V4.25532H67.5371V5.31915H66.0158V8.02128C66.0158 8.29787 66.0832 8.51064 66.218 8.65957C66.3527 8.80142 66.5477 8.87234 66.8031 8.87234C67.1009 8.87234 67.3492 8.79433 67.5477 8.6383L67.9201 9.58511Z" fill="#73858F"/>
<path d="M74.061 7.08511C74.061 7.17731 74.054 7.30851 74.0398 7.47872H69.5823C69.6603 7.89716 69.8625 8.2305 70.1887 8.47872C70.522 8.71986 70.9334 8.84043 71.4227 8.84043C72.0469 8.84043 72.561 8.63475 72.9653 8.22341L73.6781 9.04255C73.4227 9.34752 73.1001 9.57801 72.71 9.73404C72.3199 9.89007 71.8802 9.96808 71.3908 9.96808C70.7667 9.96808 70.2171 9.84397 69.7419 9.59575C69.2667 9.34752 68.8979 9.00355 68.6355 8.56383C68.3802 8.11702 68.2525 7.61348 68.2525 7.05319C68.2525 6.5 68.3766 6.00355 68.6249 5.56383C68.8802 5.11702 69.2313 4.7695 69.6781 4.52128C70.1249 4.27305 70.6284 4.14894 71.1887 4.14894C71.7419 4.14894 72.2348 4.27305 72.6674 4.52128C73.1071 4.76241 73.4476 5.10638 73.6887 5.55319C73.9369 5.99291 74.061 6.50355 74.061 7.08511ZM71.1887 5.21277C70.7632 5.21277 70.4015 5.34043 70.1036 5.59575C69.8128 5.84397 69.6355 6.17731 69.5717 6.59575H72.7951C72.7383 6.1844 72.5646 5.85106 72.2738 5.59575C71.983 5.34043 71.6213 5.21277 71.1887 5.21277Z" fill="#73858F"/>
<path d="M76.498 5.04255C76.8809 4.44681 77.5547 4.14894 78.5192 4.14894V5.41489C78.4058 5.39362 78.3029 5.38298 78.2107 5.38298C77.693 5.38298 77.2887 5.53546 76.998 5.84043C76.7072 6.1383 76.5618 6.57092 76.5618 7.1383V9.89362H75.232V4.21277H76.498V5.04255Z" fill="#73858F"/>
<path d="M53.9815 28.2182L53.9627 19.4862L49.6343 26.7127H48.5428L44.2144 19.5991V28.2182H41.8809V15.0449H43.8945L49.1262 23.777L54.2638 15.0449H56.2774L56.2962 28.2182H53.9815Z" fill="currentColor"/>
<path d="M63.2796 18.056C64.76 18.056 65.8891 18.4135 66.667 19.1287C67.4574 19.8312 67.8526 20.8976 67.8526 22.3279V28.2182H65.6319V26.995C65.3434 27.4341 64.9294 27.7729 64.3899 28.0112C63.863 28.2371 63.2231 28.35 62.4703 28.35C61.7176 28.35 61.0589 28.2245 60.4944 27.9736C59.9298 27.7101 59.4907 27.3526 59.177 26.9009C58.8759 26.4367 58.7254 25.916 58.7254 25.3389C58.7254 24.4356 59.0578 23.7142 59.7228 23.1747C60.4003 22.6227 61.4604 22.3467 62.9032 22.3467H65.5002V22.1962C65.5002 21.4936 65.2869 20.9541 64.8604 20.5777C64.4463 20.2013 63.8253 20.0131 62.9973 20.0131C62.4327 20.0131 61.8744 20.101 61.3224 20.2766C60.7829 20.4523 60.325 20.6969 59.9486 21.0106L59.0265 19.298C59.5534 18.8966 60.187 18.5892 60.9272 18.3759C61.6674 18.1626 62.4515 18.056 63.2796 18.056ZM62.9596 26.6374C63.5493 26.6374 64.07 26.5057 64.5216 26.2422C64.9858 25.9662 65.312 25.5773 65.5002 25.0755V23.9087H63.0726C61.7176 23.9087 61.0401 24.3541 61.0401 25.2448C61.0401 25.6714 61.2095 26.0101 61.5482 26.2611C61.887 26.512 62.3574 26.6374 62.9596 26.6374Z" fill="currentColor"/>
<path d="M76.3855 18.056C77.6527 18.056 78.6689 18.4261 79.4342 19.1663C80.1995 19.9065 80.5822 21.0043 80.5822 22.4596V28.2182H78.2298V22.7607C78.2298 21.8825 78.0228 21.2238 77.6088 20.7847C77.1948 20.3331 76.6051 20.1072 75.8398 20.1072C74.9741 20.1072 74.2904 20.3707 73.7885 20.8976C73.2867 21.412 73.0358 22.1585 73.0358 23.1371V28.2182H70.6834V18.1689H72.9229V19.4674C73.3118 19.0032 73.8011 18.6519 74.3907 18.4135C74.9804 18.1752 75.6453 18.056 76.3855 18.056Z" fill="currentColor"/>
<path d="M87.2172 18.056C88.6976 18.056 89.8268 18.4135 90.6046 19.1287C91.395 19.8312 91.7902 20.8976 91.7902 22.3279V28.2182H89.5696V26.995C89.281 27.4341 88.867 27.7729 88.3275 28.0112C87.8006 28.2371 87.1608 28.35 86.408 28.35C85.6552 28.35 84.9966 28.2245 84.432 27.9736C83.8674 27.7101 83.4283 27.3526 83.1147 26.9009C82.8136 26.4367 82.663 25.916 82.663 25.3389C82.663 24.4356 82.9955 23.7142 83.6604 23.1747C84.3379 22.6227 85.398 22.3467 86.8408 22.3467H89.4379V22.1962C89.4379 21.4936 89.2246 20.9541 88.798 20.5777C88.384 20.2013 87.763 20.0131 86.9349 20.0131C86.3704 20.0131 85.8121 20.101 85.26 20.2766C84.7206 20.4523 84.2626 20.6969 83.8862 21.0106L82.9641 19.298C83.491 18.8966 84.1246 18.5892 84.8648 18.3759C85.6051 18.1626 86.3892 18.056 87.2172 18.056ZM86.8973 26.6374C87.487 26.6374 88.0076 26.5057 88.4593 26.2422C88.9235 25.9662 89.2497 25.5773 89.4379 25.0755V23.9087H87.0102C85.6552 23.9087 84.9777 24.3541 84.9777 25.2448C84.9777 25.6714 85.1471 26.0101 85.4859 26.2611C85.8246 26.512 86.2951 26.6374 86.8973 26.6374Z" fill="currentColor"/>
<path d="M104.687 18.1689V26.6939C104.687 30.2319 102.88 32.0009 99.2671 32.0009C98.3011 32.0009 97.3852 31.8754 96.5196 31.6245C95.6539 31.3861 94.9387 31.0348 94.3742 30.5706L95.4281 28.8016C95.8672 29.1655 96.4192 29.454 97.0841 29.6673C97.7616 29.8931 98.4454 30.0061 99.1354 30.0061C100.239 30.0061 101.049 29.7551 101.563 29.2533C102.077 28.7514 102.335 27.9861 102.335 26.9574V26.4304C101.933 26.8695 101.444 27.202 100.867 27.4278C100.29 27.6537 99.6561 27.7666 98.966 27.7666C98.0125 27.7666 97.1468 27.5659 96.369 27.1644C95.6037 26.7504 94.9952 26.1732 94.5436 25.433C94.1044 24.6928 93.8849 23.846 93.8849 22.8925C93.8849 21.939 94.1044 21.0984 94.5436 20.3707C94.9952 19.6305 95.6037 19.0596 96.369 18.6582C97.1468 18.2567 98.0125 18.056 98.966 18.056C99.6937 18.056 100.352 18.1752 100.942 18.4135C101.544 18.6519 102.046 19.0157 102.448 19.505V18.1689H104.687ZM99.3236 25.7718C100.214 25.7718 100.942 25.5083 101.507 24.9814C102.084 24.4419 102.372 23.7456 102.372 22.8925C102.372 22.0519 102.084 21.3681 101.507 20.8412C100.942 20.3143 100.214 20.0508 99.3236 20.0508C98.4203 20.0508 97.6801 20.3143 97.1029 20.8412C96.5384 21.3681 96.2561 22.0519 96.2561 22.8925C96.2561 23.7456 96.5384 24.4419 97.1029 24.9814C97.6801 25.5083 98.4203 25.7718 99.3236 25.7718Z" fill="currentColor"/>
<path d="M117.039 23.25C117.039 23.4131 117.026 23.6452 117.001 23.9463H109.116C109.254 24.6865 109.611 25.2762 110.188 25.7153C110.778 26.1419 111.506 26.3552 112.371 26.3552C113.476 26.3552 114.385 25.9913 115.1 25.2637L116.361 26.7127C115.909 27.2522 115.339 27.6599 114.649 27.936C113.959 28.212 113.181 28.35 112.315 28.35C111.211 28.35 110.239 28.1304 109.398 27.6913C108.558 27.2522 107.905 26.6437 107.441 25.8659C106.989 25.0755 106.763 24.1847 106.763 23.1936C106.763 22.215 106.983 21.3368 107.422 20.5589C107.874 19.7685 108.495 19.1537 109.285 18.7146C110.076 18.2755 110.966 18.056 111.957 18.056C112.936 18.056 113.808 18.2755 114.573 18.7146C115.351 19.1412 115.953 19.7497 116.38 20.5401C116.819 21.3179 117.039 22.2212 117.039 23.25ZM111.957 19.9379C111.205 19.9379 110.565 20.1637 110.038 20.6154C109.524 21.0545 109.21 21.6441 109.097 22.3843H114.799C114.699 21.6567 114.391 21.067 113.877 20.6154C113.363 20.1637 112.723 19.9379 111.957 19.9379Z" fill="currentColor"/>
<path d="M121.35 19.6368C122.027 18.5829 123.219 18.056 124.925 18.056V20.2954C124.724 20.2578 124.542 20.239 124.379 20.239C123.464 20.239 122.748 20.5087 122.234 21.0482C121.72 21.5751 121.462 22.3404 121.462 23.3441V28.2182H119.11V18.1689H121.35V19.6368Z" fill="currentColor"/>
</svg>
