<svg viewBox="0 0 134 34" fill="none" xmlns="http://www.w3.org/2000/svg">
    <path
        d="M13.3193 0C6.70167 0 0 1.88627 0 5.4814V19.9566C0 23.5517 6.72409 25.438 13.3193 25.438C14.2887 25.438 15.2749 25.3906 16.2331 25.302L17.1352 23.191C15.8686 23.3462 14.5944 23.4212 13.3193 23.4157C6.36547 23.4157 1.91637 21.3639 1.91637 19.9566V18.7326C4.38187 20.3823 8.85899 21.2456 13.3193 21.2456C14.9255 21.2469 16.53 21.1323 18.1214 20.9026L19.0628 18.703C17.1669 19.0572 15.2447 19.2313 13.3193 19.2233C6.36547 19.2233 1.91637 17.1774 1.91637 15.7642V14.5461C4.38187 16.1959 8.85899 17.0592 13.3193 17.0592C15.5894 17.0712 17.8544 16.8314 20.077 16.3437L21.0744 14.008C18.547 14.728 15.937 15.0742 13.3193 15.0369C6.36547 15.0369 1.91637 12.9851 1.91637 11.5719V10.3419C4.38187 12.0035 8.85899 12.8668 13.3193 12.8668C16.2959 12.9099 19.2617 12.4793 22.1167 11.5896L23.2373 8.91689C22.7433 9.18579 22.2299 9.41316 21.702 9.59688C21.702 9.59688 21.702 9.59688 21.702 9.59688C21.702 9.59688 21.5451 9.65601 21.3938 9.6974C21.2425 9.7388 21.08 9.80385 20.8727 9.86298C19.5247 10.2625 18.1438 10.5258 16.7486 10.6494C16.0874 10.7263 15.3646 10.7854 14.5913 10.7972C14.1822 10.7972 13.762 10.7972 13.3249 10.7972C12.0417 10.7972 10.9042 10.7263 9.87321 10.6198C8.58388 10.4741 7.30528 10.237 6.04608 9.91027L5.58099 9.77428C5.27124 9.68789 4.9663 9.58327 4.66763 9.46089C3.76187 9.1815 2.9283 8.68809 2.23016 8.0181V8.0181C2.19555 7.98441 2.16706 7.94433 2.1461 7.89984C2.0836 7.8316 2.03414 7.7513 2.00041 7.66332C1.98633 7.61034 1.96756 7.55886 1.94438 7.50958C1.82768 7.14803 1.77083 6.768 1.77628 6.3861C1.75904 5.98151 1.82598 5.57785 1.9724 5.20349C2.02128 5.05388 2.09958 4.91686 2.20214 4.8014C2.21924 4.76776 2.24203 4.7377 2.26938 4.7127C2.883 4.12228 3.60892 3.67677 4.39867 3.40592L6.2422 7.71062L6.39349 8.0654C6.62323 8.49706 7.14434 9.1061 8.33787 8.65671L8.63485 8.52071C10.1059 7.96366 11.6615 7.69707 13.224 7.73428H13.3361C14.0854 7.7338 14.834 7.78318 15.5775 7.8821C15.7456 7.8821 15.9137 7.94123 16.0874 7.97079C16.7374 8.07572 17.3745 8.25619 17.9869 8.50888L18.0542 8.53845C18.146 8.57216 18.2358 8.61165 18.3232 8.65671C19.4438 9.07062 20.0042 8.56801 20.2395 8.13636C20.3123 7.99633 20.3777 7.85223 20.4356 7.70471L20.5477 7.42088L20.7326 7.00697L22.268 3.40001C22.6766 3.55123 23.0721 3.73916 23.4503 3.96174C23.5435 4.03304 23.6408 4.09821 23.7417 4.15688C23.8756 4.23844 24.003 4.33138 24.1227 4.43479C24.2067 4.51166 24.2908 4.60036 24.3636 4.67723C24.4419 4.74769 24.5082 4.83167 24.5597 4.92557C24.6134 5.00377 24.6568 5.0893 24.6886 5.17983C24.723 5.25433 24.7457 5.33421 24.7559 5.41636H26.6386C26.6386 1.88627 19.9145 0 13.3193 0ZM12.546 6.17914C10.8774 6.2005 9.22812 6.55982 7.68787 7.23758L5.85556 2.95653C8.04272 2.36773 10.2889 2.05804 12.546 2.03409V6.17914ZM18.9507 7.23758C17.4105 6.55982 15.7612 6.2005 14.0926 6.17914V2.04C16.3498 2.06269 18.5961 2.3724 20.7831 2.96244L18.9507 7.23758Z"
        fill="#00A872" />
    <path
        d="M32.2419 20.2219H25.9268L24.6829 23.3085H22.2622L27.9497 9.97461H30.2639L35.9682 23.3085H33.5139L32.2419 20.2219ZM31.4686 18.2825L29.0816 12.4522L26.7169 18.2825H31.4686Z"
        fill="#00A872" />
    <path
        d="M45.4826 23.3074L42.905 19.4048C42.7929 19.4048 42.6304 19.4048 42.4175 19.4048H39.5597V23.2897H37.2119V9.9735H42.4175C43.3987 9.95785 44.3722 10.1593 45.2752 10.5648C46.0389 10.9033 46.6902 11.4734 47.1468 12.2027C47.5914 12.9642 47.8171 13.8453 47.7968 14.7394C47.8189 15.657 47.5766 16.5601 47.1019 17.3293C46.6127 18.075 45.9155 18.6413 45.1071 18.9495L48.0153 23.3311L45.4826 23.3074ZM44.6364 12.7526C43.9568 12.249 43.1339 12.0069 42.3054 12.0667H39.5597V17.3885H42.3278C43.1573 17.4495 43.9812 17.205 44.6589 16.6967C44.9256 16.4534 45.1359 16.1489 45.2739 15.8066C45.4118 15.4643 45.4736 15.0931 45.4545 14.7217C45.4722 14.349 45.4074 13.9771 45.2654 13.6354C45.1235 13.2937 44.9081 12.9915 44.6364 12.7526V12.7526Z"
        fill="#00A872" />
    <path
        d="M58.813 21.2331V23.3085H49.332V9.97461H58.5777V12.0383H51.6799V15.5033H57.782V17.5433H51.6799V21.2212L58.813 21.2331Z"
        fill="#00A872" />
    <path
        d="M71.5779 9.97461V23.3085H69.6447L62.674 14.2793V23.3085H60.3486V9.97461H62.2762L69.2244 19.0038V9.97461H71.5779Z"
        fill="#00A872" />
    <path
        d="M82.4487 20.2219H76.128L74.8841 23.3085H72.4634L78.1508 9.97461H80.4651L86.1693 23.3085H83.715L82.4487 20.2219ZM81.6754 18.2825L79.3108 12.4522L76.9461 18.2825H81.6754Z"
        fill="#00A872" />
    <path
        d="M87.4131 9.9744H92.9381C94.1822 9.94753 95.4148 10.2312 96.5354 10.8022C97.5492 11.3228 98.3965 12.145 98.9729 13.1675C99.5388 14.2365 99.8358 15.4406 99.8358 16.665C99.8358 17.8895 99.5388 19.0936 98.9729 20.1626C98.3965 21.1851 97.5492 22.0073 96.5354 22.5278C95.4148 23.0989 94.1822 23.3825 92.9381 23.3556H87.4131V9.9744ZM92.8316 21.2092C93.6805 21.2175 94.5193 21.0149 95.2803 20.6179C95.9588 20.2629 96.5238 19.7058 96.9053 19.0155C97.2767 18.2728 97.4709 17.4457 97.4709 16.6059C97.4709 15.7661 97.2767 14.939 96.9053 14.1963C96.5238 13.506 95.9588 12.9488 95.2803 12.5939C94.5169 12.2071 93.6782 12.0147 92.8316 12.0322H89.7609V21.1796L92.8316 21.2092Z"
        fill="#00A872" />
    <path
        d="M109.261 20.2219H102.946L101.724 23.3085H99.3091L104.997 9.97461H107.305L113.009 23.3085H110.555L109.261 20.2219ZM108.487 18.2825L106.106 12.4522L103.741 18.2825H108.487Z"
        fill="#00A872" />
    <path
        d="M115.078 12.0678H110.886V9.97461H121.617V12.0678H117.414V23.3026H115.066L115.078 12.0678Z"
        fill="#00A872" />
    <path
        d="M129.506 20.2219H123.185L121.941 23.3085H119.521L125.208 9.97461H127.5L133.204 23.3085H130.75L129.506 20.2219ZM128.727 18.2825L126.345 12.4522L123.981 18.2825H128.727Z"
        fill="#00A872" />
    <path
        d="M23.6183 33.36C23.1223 33.0888 22.7058 32.6799 22.4136 32.1774C22.1272 31.6468 21.9766 31.0466 21.9766 30.436C21.9766 29.8253 22.1272 29.2252 22.4136 28.6946C22.7058 28.1921 23.1223 27.7832 23.6183 27.512C24.1074 27.2492 24.6445 27.101 25.1928 27.0775C25.7412 27.0541 26.2878 27.1559 26.7955 27.376C27.2184 27.5673 27.5927 27.861 27.8881 28.2334L26.9692 29.1322C26.7803 28.8895 26.5424 28.6946 26.2728 28.5616C26.0033 28.4286 25.709 28.3609 25.4114 28.3635C25.0602 28.3471 24.7109 28.4265 24.3972 28.5941C24.0994 28.7663 23.8544 29.0248 23.6912 29.3391C23.52 29.6708 23.4332 30.0436 23.439 30.4212C23.4319 30.799 23.5188 31.1721 23.6912 31.5033C23.8544 31.8176 24.0994 32.0761 24.3972 32.2483C24.711 32.4302 25.0646 32.522 25.4226 32.5144C25.7208 32.5171 26.0156 32.4489 26.2853 32.3148C26.555 32.1807 26.7926 31.9842 26.9804 31.7398L27.8993 32.6386C27.5988 33.0208 27.214 33.3192 26.7787 33.5078C26.317 33.7093 25.8213 33.8099 25.3218 33.8035C24.7278 33.808 24.1422 33.6555 23.6183 33.36V33.36Z"
        fill="#73858F" />
    <path d="M28.6782 27.1406H30.1127V32.4624H33.217V33.6923H28.6782V27.1406Z" fill="#73858F" />
    <path
        d="M34.4495 33.0182C34.1908 32.7218 33.9922 32.3728 33.866 31.9925C33.7398 31.6122 33.6885 31.2087 33.7155 30.8067V27.1406H35.1443V30.7476C35.1443 31.9302 35.6094 32.5215 36.5284 32.5215C36.7185 32.5349 36.9091 32.5037 37.0864 32.4301C37.2637 32.3565 37.4233 32.2423 37.5538 32.0958C37.8185 31.7111 37.9438 31.2391 37.9068 30.7653V27.1584H39.3245V30.8245C39.3063 31.4116 39.1301 31.9812 38.8163 32.4665C38.5026 32.9518 38.0643 33.3327 37.5529 33.5647C37.0414 33.7967 36.4779 33.8702 35.9283 33.7766C35.3787 33.6829 34.8658 33.426 34.4495 33.0359V33.0182Z"
        fill="#73858F" />
    <path
        d="M41.2071 33.5843C40.8046 33.4757 40.4246 33.2892 40.0864 33.0344L40.5739 31.8932C40.8618 32.1121 41.1817 32.2799 41.5209 32.3899C41.8825 32.5155 42.2609 32.5794 42.6416 32.5791C42.9535 32.6018 43.2654 32.5343 43.5437 32.384C43.6305 32.3339 43.7032 32.2605 43.7544 32.1712C43.8055 32.0818 43.8334 31.9798 43.8351 31.8755C43.8366 31.8015 43.8217 31.7282 43.7916 31.6615C43.7614 31.5947 43.7168 31.5364 43.6614 31.4911C43.5335 31.3741 43.3822 31.2892 43.2187 31.2428C43.0394 31.1777 42.7985 31.1127 42.4903 31.0358C42.0974 30.9416 41.7101 30.8231 41.3304 30.681C41.0283 30.5583 40.7617 30.3545 40.5571 30.0897C40.3295 29.7955 40.2137 29.4224 40.2321 29.0431C40.2303 28.6754 40.3317 28.3153 40.5235 28.0083C40.7465 27.68 41.0536 27.4257 41.4088 27.2751C41.8646 27.0829 42.3526 26.9904 42.8433 27.0031C43.2345 27.0032 43.6241 27.0549 44.0032 27.1569C44.3527 27.2437 44.6873 27.3874 44.995 27.5826L44.5523 28.7356C44.0336 28.4082 43.4422 28.2307 42.8377 28.2212C42.5279 28.1955 42.2178 28.2676 41.9468 28.4282C41.8568 28.4814 41.7825 28.5598 41.7321 28.6548C41.6817 28.7497 41.6571 28.8575 41.661 28.9662C41.6604 29.0757 41.6918 29.1827 41.751 29.2727C41.8102 29.3626 41.8942 29.4311 41.9916 29.4689C42.319 29.61 42.6587 29.7169 43.0058 29.7882C43.3987 29.8824 43.786 30.0008 44.1657 30.1429C44.4654 30.2704 44.7309 30.4735 44.939 30.7342C45.1653 31.0246 45.2812 31.3935 45.264 31.769C45.2671 32.1341 45.1634 32.4914 44.967 32.792C44.742 33.1207 44.433 33.3751 44.0761 33.5252C43.617 33.7196 43.1248 33.8122 42.6304 33.7972C42.1489 33.7963 41.6699 33.7246 41.2071 33.5843V33.5843Z"
        fill="#73858F" />
    <path d="M47.2251 28.3765H45.2471V27.1406H50.6431V28.3765H48.6595V33.6982H47.2251V28.3765Z"
        fill="#73858F" />
    <path
        d="M56.0338 32.4683V33.6509H51.2373V27.1406H55.9218V28.3587H52.6606V29.7779H55.5407V30.9605H52.6606V32.4742L56.0338 32.4683Z"
        fill="#73858F" />
    <path
        d="M60.948 33.6792L59.7544 31.858H58.432V33.6792H56.9976V27.1394H59.6984C60.1887 27.1292 60.6755 27.2279 61.1273 27.4291C61.5154 27.5978 61.8448 27.8888 62.0705 28.2624C62.2961 28.636 62.407 29.0739 62.388 29.5164C62.3984 29.9597 62.2833 30.3961 62.0574 30.77C61.8246 31.1305 61.4976 31.412 61.1161 31.5801L62.5001 33.6792H60.948ZM60.5837 28.6709C60.2996 28.4546 59.9527 28.3501 59.6031 28.3752H58.432V30.6517H59.6031C59.9527 30.6769 60.2996 30.5723 60.5837 30.3561C60.6965 30.2522 60.7853 30.1227 60.8436 29.9772C60.9018 29.8317 60.928 29.6741 60.9199 29.5164C60.9297 29.3577 60.9044 29.1987 60.8461 29.052C60.7877 28.9052 60.6979 28.7748 60.5837 28.6709V28.6709Z"
        fill="#73858F" />
    <path
        d="M71.292 33.6805V29.7778L69.4653 33.0064H68.8209L66.983 29.8429V33.6805H65.6382V27.1406H66.8261L69.1459 31.2088L71.4265 27.1406H72.6032V33.6805H71.292Z"
        fill="#73858F" />
    <path
        d="M78.0107 32.2791H75.1362L74.5758 33.6805H73.147L75.9039 27.1406H77.3215L80.1232 33.6805H78.6159L78.0107 32.2791ZM77.5625 31.1319L76.5763 28.6307L75.5957 31.1319H77.5625Z"
        fill="#73858F" />
    <path
        d="M86.2141 27.1406V33.6805H85.0374L81.9499 29.7128V33.6805H80.5322V27.1406H81.7201L84.802 31.1142V27.1406H86.2141Z"
        fill="#73858F" />
    <path
        d="M91.5876 32.2791H88.713L88.1527 33.6805H86.6846L89.4414 27.1406H90.8591L93.6328 33.6805H92.1255L91.5876 32.2791ZM91.1393 31.1319L90.1531 28.6307L89.1725 31.1319H91.1393Z"
        fill="#73858F" />
    <path
        d="M98.2108 30.309H99.5164V32.9581C99.1654 33.2356 98.7709 33.4458 98.3509 33.579C97.9169 33.7193 97.4656 33.7911 97.0116 33.7918C96.4094 33.8027 95.8141 33.6543 95.2802 33.3602C94.7814 33.0908 94.3626 32.6817 94.0698 32.1776C93.7834 31.647 93.6328 31.0468 93.6328 30.4362C93.6328 29.8255 93.7834 29.2254 94.0698 28.6948C94.3648 28.1905 94.7855 27.7814 95.2858 27.5122C95.8273 27.2159 96.4298 27.0656 97.0397 27.0746C97.5459 27.0695 98.0482 27.1679 98.519 27.3643C98.9511 27.5478 99.3353 27.8377 99.6396 28.2099L98.7207 29.1028C98.3864 28.7308 97.9465 28.4836 97.4675 28.3983C96.9885 28.313 96.4961 28.3942 96.0647 28.6297C95.7631 28.7954 95.5139 29.0502 95.3474 29.363C95.1712 29.6971 95.0822 30.0746 95.0897 30.4569C95.0815 30.8355 95.1706 31.2094 95.3474 31.539C95.5129 31.8535 95.7597 32.1118 96.0591 32.284C96.379 32.4658 96.738 32.5575 97.1013 32.5501C97.4908 32.556 97.8757 32.4606 98.222 32.2722L98.2108 30.309Z"
        fill="#73858F" />
    <path
        d="M105.467 32.4683V33.6509H100.671V27.1406H105.35V28.3587H102.094V29.7779H104.969V30.9605H102.094V32.4742L105.467 32.4683Z"
        fill="#73858F" />
    <path
        d="M110.382 33.6792L109.182 31.858H107.888V33.6792H106.431V27.1394H109.115C109.605 27.1292 110.092 27.2279 110.544 27.4291C110.93 27.6007 111.258 27.8923 111.483 28.2652C111.708 28.6381 111.821 29.0745 111.805 29.5164C111.821 29.9578 111.707 30.3935 111.478 30.7633C111.249 31.133 110.917 31.4185 110.527 31.5801L111.917 33.6792H110.382ZM110.017 28.6709C109.731 28.4547 109.382 28.3502 109.031 28.3752H107.888V30.6517H109.009C109.36 30.6768 109.709 30.5723 109.995 30.3561C110.108 30.2522 110.197 30.1227 110.255 29.9772C110.313 29.8317 110.339 29.6741 110.331 29.5164C110.344 29.3596 110.322 29.2017 110.267 29.0552C110.213 28.9086 110.127 28.7771 110.017 28.6709Z"
        fill="#73858F" />
</svg>
