<svg width="32" height="32" viewBox="0 0 32 32" fill="none" xmlns="http://www.w3.org/2000/svg">
<path d="M21.4805 5.68893L18.636 10.6157L12.9471 10.6157L10.1026 5.68893L12.9471 0.762171L18.636 0.762172L21.4805 5.68893Z" stroke="#00A872" stroke-width="1.5"/>
<path d="M21.4805 26.1694L18.636 31.0962L12.9471 31.0962L10.1026 26.1694L12.9471 21.2426L18.636 21.2426L21.4805 26.1694Z" stroke="#00A872" stroke-width="1.5"/>
<path d="M30.5825 21.0483L27.7381 25.9751L22.0491 25.9751L19.2047 21.0483L22.0491 16.1215L27.7381 16.1215L30.5825 21.0483Z" stroke="#00A872" stroke-width="1.5"/>
<path d="M30.5825 10.81L27.7381 15.7368L22.0491 15.7368L19.2047 10.81L22.0491 5.88327L27.7381 5.88327L30.5825 10.81Z" stroke="#00A872" stroke-width="1.5"/>
<path d="M12.3774 10.81L9.53298 15.7368L3.84405 15.7368L0.999585 10.81L3.84405 5.88327L9.53298 5.88327L12.3774 10.81Z" stroke="#00A872" stroke-width="1.5"/>
<path d="M10.1021 10.8079L8.39537 13.7639L4.98202 13.7639L3.27534 10.8079L4.98202 7.85183L8.39537 7.85183L10.1021 10.8079Z" fill="#00A872"/>
<path d="M28.3071 10.8079L26.6005 13.7639L23.1871 13.7639L21.4804 10.8079L23.1871 7.85183L26.6005 7.85183L28.3071 10.8079Z" fill="#00A872"/>
<path d="M19.2046 26.1692L17.4979 29.1253L14.0846 29.1253L12.3779 26.1692L14.0846 23.2132L17.4979 23.2132L19.2046 26.1692Z" fill="#00A872"/>
<path d="M12.3774 21.0483L9.53298 25.9751L3.84405 25.9751L0.999585 21.0483L3.84405 16.1215L9.53298 16.1215L12.3774 21.0483Z" stroke="#00A872" stroke-width="1.5"/>
</svg>
