<svg viewBox="0 0 27 34" fill="none" xmlns="http://www.w3.org/2000/svg">
    <path
        d="M13.3193 0C6.70167 0 0 1.88627 0 5.4814V19.9566C0 23.5517 6.72409 25.438 13.3193 25.438C14.2887 25.438 15.2749 25.3906 16.2331 25.302L17.1352 23.191C15.8686 23.3462 14.5944 23.4212 13.3193 23.4157C6.36547 23.4157 1.91637 21.3639 1.91637 19.9566V18.7326C4.38187 20.3823 8.85899 21.2456 13.3193 21.2456C14.9255 21.2469 16.53 21.1323 18.1214 20.9026L19.0628 18.703C17.1669 19.0572 15.2447 19.2313 13.3193 19.2233C6.36547 19.2233 1.91637 17.1774 1.91637 15.7642V14.5461C4.38187 16.1959 8.85899 17.0592 13.3193 17.0592C15.5894 17.0712 17.8544 16.8314 20.077 16.3437L21.0744 14.008C18.547 14.728 15.937 15.0742 13.3193 15.0369C6.36547 15.0369 1.91637 12.9851 1.91637 11.5719V10.3419C4.38187 12.0035 8.85899 12.8668 13.3193 12.8668C16.2959 12.9099 19.2617 12.4793 22.1167 11.5896L23.2373 8.91689C22.7433 9.18579 22.2299 9.41316 21.702 9.59688C21.702 9.59688 21.702 9.59688 21.702 9.59688C21.702 9.59688 21.5451 9.65601 21.3938 9.6974C21.2425 9.7388 21.08 9.80385 20.8727 9.86298C19.5247 10.2625 18.1438 10.5258 16.7486 10.6494C16.0874 10.7263 15.3646 10.7854 14.5913 10.7972C14.1822 10.7972 13.762 10.7972 13.3249 10.7972C12.0417 10.7972 10.9042 10.7263 9.87321 10.6198C8.58388 10.4741 7.30528 10.237 6.04608 9.91027L5.58099 9.77428C5.27124 9.68789 4.9663 9.58327 4.66763 9.46089C3.76187 9.1815 2.9283 8.68809 2.23016 8.0181V8.0181C2.19555 7.98441 2.16706 7.94433 2.1461 7.89984C2.0836 7.8316 2.03414 7.7513 2.00041 7.66332C1.98633 7.61034 1.96756 7.55886 1.94438 7.50958C1.82768 7.14803 1.77083 6.768 1.77628 6.3861C1.75904 5.98151 1.82598 5.57785 1.9724 5.20349C2.02128 5.05388 2.09958 4.91686 2.20214 4.8014C2.21924 4.76776 2.24203 4.7377 2.26938 4.7127C2.883 4.12228 3.60892 3.67677 4.39867 3.40592L6.2422 7.71062L6.39349 8.0654C6.62323 8.49706 7.14434 9.1061 8.33787 8.65671L8.63485 8.52071C10.1059 7.96366 11.6615 7.69707 13.224 7.73428H13.3361C14.0854 7.7338 14.834 7.78318 15.5775 7.8821C15.7456 7.8821 15.9137 7.94123 16.0874 7.97079C16.7374 8.07572 17.3745 8.25619 17.9869 8.50888L18.0542 8.53845C18.146 8.57216 18.2358 8.61165 18.3232 8.65671C19.4438 9.07062 20.0042 8.56801 20.2395 8.13636C20.3123 7.99633 20.3777 7.85223 20.4356 7.70471L20.5477 7.42088L20.7326 7.00697L22.268 3.40001C22.6766 3.55123 23.0721 3.73916 23.4503 3.96174C23.5435 4.03304 23.6408 4.09821 23.7417 4.15688C23.8756 4.23844 24.003 4.33138 24.1227 4.43479C24.2067 4.51166 24.2908 4.60036 24.3636 4.67723C24.4419 4.74769 24.5082 4.83167 24.5597 4.92557C24.6134 5.00377 24.6568 5.0893 24.6886 5.17983C24.723 5.25433 24.7457 5.33421 24.7559 5.41636H26.6386C26.6386 1.88627 19.9145 0 13.3193 0ZM12.546 6.17914C10.8774 6.2005 9.22812 6.55982 7.68787 7.23758L5.85556 2.95653C8.04272 2.36773 10.2889 2.05804 12.546 2.03409V6.17914ZM18.9507 7.23758C17.4105 6.55982 15.7612 6.2005 14.0926 6.17914V2.04C16.3498 2.06269 18.5961 2.3724 20.7831 2.96244L18.9507 7.23758Z"
        fill="#00A872" />
</svg>
