<svg viewBox="0 0 20 20" fill="none" xmlns="http://www.w3.org/2000/svg"><path d="M7.9573 3.54687C9.80453 3.70621 11.4642 4.93403 12.0737 6.80858C12.8895 9.30173 11.5299 11.9823 9.03562 12.7978C6.54139 13.6132 3.85963 12.2541 3.04385 9.761C2.82818 9.09553 2.5 9.23612 2.5 10.0047C2.5 10.7733 2.61252 11.5606 2.86569 12.3291C4.15032 16.2657 8.38863 18.412 12.3269 17.128C16.2651 15.8439 18.4124 11.6074 17.1278 7.67087C15.8432 3.73432 11.6049 1.58797 7.66661 2.87203C7.66661 2.87203 7.2259 2.94701 7.3478 3.24694C7.46032 3.5375 7.9573 3.54687 7.9573 3.54687Z" stroke="currentColor" stroke-miterlimit="10" stroke-linecap="round" stroke-linejoin="round"/></svg>
