<svg viewBox="0 0 600 600" fill="none" xmlns="http://www.w3.org/2000/svg">
  <g stroke="currentColor" stroke-width="30" stroke-miterlimit="10" stroke-linecap="round">
	  <path d="M374.1,144.2c-20.8-12.7-46.3-21.6-74.1-21.6l0,0c-0.1,0-0.2,0-0.2,0c-0.1,0-0.2,0-0.2,0l0,0
		c-40.4,0.1-75.7,18.6-98.9,40.5c-23.3,22-38.5,51.1-43.2,82.6c0,0-7.5,68.5-18.8,103.7s-36.9,67.7-38.5,85.7
		c-4.1,46.7,171.7,42.1,199.7,41c27.7,1.1,203.5,5.7,199.5-41c-1.6-18-27.2-50.5-38.5-85.7c-1.8-5.7-3.5-12.2-5.1-19.2"/>
    <path stroke-width="25" d="M250,477.4c0,13.3,5.3,26,14.6,35.4c9.4,9.4,22.1,14.6,35.4,14.6s26-5.3,35.4-14.6
		c9.4-9.4,14.6-22.1,14.6-35.4H250z"/>
    <circle cx="299.9" cy="97.5" r="25.1"/>
    <path class="bell__holePatch" d="M499.4,435.1c-1.6-18-27.2-50.5-38.5-85.7s-18.8-103.7-18.8-103.7c-4.7-31.5-19.9-60.5-43.2-82.6
		c-23.2-21.9-58.6-40.4-98.9-40.5l0,0c-0.1,0-0.2,0-0.2,0c-0.1,0-0.2,0-0.2,0l0,0" />
  </g>
  <circle fill="currentColor" class="bell__marker" data-test="bell-circle" cx="433.4" cy="231" r="62.5" />
</svg>
